<svg width="15" height="15" viewBox="0 0 15 15" fill="none" xmlns="http://www.w3.org/2000/svg">
<g clip-path="url(#clip0_602_34792)">
<path d="M6.375 2.81543C5.99561 2.79712 5.65254 3.08367 5.62734 3.4708C5.60156 3.8584 5.89453 4.19238 6.28125 4.19238C8.61123 4.34438 10.6289 6.36299 10.7812 8.69238C10.8055 9.06416 11.1149 9.34951 11.4826 9.34951C11.498 9.34936 11.5135 9.34874 11.5288 9.34767C11.9162 9.32297 12.21 8.9879 12.1848 8.6006C11.9912 5.61914 9.38379 3.01172 6.375 2.81543ZM6.5625 0C6.04395 0 5.625 0.419238 5.625 0.9375C5.625 1.45576 6.04482 1.875 6.5625 1.875C10.1807 1.875 13.125 4.81934 13.125 8.4375C13.125 8.95576 13.5448 9.375 14.0625 9.375C14.5802 9.375 15 8.95576 15 8.4375C15 3.78516 11.2148 0 6.5625 0ZM5.04785 6.64453C4.62012 6.55957 4.21875 6.9082 4.21875 7.3418V8.81748C4.21875 9.11777 4.42755 9.35566 4.70947 9.43565C5.24062 9.6334 5.62529 10.1499 5.62529 10.7276C5.62529 11.504 4.99541 12.1075 4.21875 12.1075C3.44238 12.1075 2.81221 11.4776 2.81221 10.7276V3.51562C2.81221 3.12744 2.49727 2.83887 2.10879 2.83887L0.702246 2.8391C0.314941 2.81309 0 3.12891 0 3.51562V10.7549C0 13.377 2.40645 15.4482 5.12695 14.877C6.72012 14.54 8.00596 13.251 8.34375 11.6631C8.85352 9.26074 7.25977 7.08398 5.04785 6.64453Z" fill="#F6B301"/>
</g>
<defs>
<clipPath id="clip0_602_34792">
<rect width="15" height="15" fill="white"/>
</clipPath>
</defs>
</svg>
