<svg width="51" height="57" viewBox="0 0 51 57" fill="none" xmlns="http://www.w3.org/2000/svg">
<path d="M8.78339 2.95941C1.62842 8.01337 -5.35012 23.332 5.98021 44.5273C17.3105 65.7226 34.9137 54.3806 40.5005 50.2865C46.0872 46.1728 58.4173 28.1117 44.127 11.5198C29.817 -5.09167 12.4099 0.393248 8.78339 2.95941Z" fill="#F9F9F9"/>
<g clip-path="url(#clip0_612_34863)">
<path d="M35.5474 4.00049C35.7549 4.0249 35.9624 4.04932 36.1699 4.06152C37.4395 4.11035 38.709 4.11035 39.9663 4.1958C41.0405 4.26904 41.7241 4.92822 41.895 6.00244C41.9927 6.63721 42.0415 7.29639 42.0415 7.94336C42.0415 18.3926 42.0293 28.8296 42.0049 39.2788C42.0049 42.5137 42.0049 45.7485 41.9561 48.9956C41.9438 49.8013 41.834 50.6191 41.6631 51.4004C41.3579 52.7432 40.4302 53.4756 39.0752 53.6099C37.9888 53.7197 36.9023 53.7563 35.8159 53.793C34.1558 53.854 32.4956 53.8784 30.8355 53.9272C30.6401 53.9272 30.457 53.9761 30.2617 54.0005C26.5874 54.0005 22.9009 54.0005 19.2266 54.0005C18.3721 53.9395 17.5054 53.9028 16.6631 53.8052C15.9917 53.7197 15.3203 53.5854 14.6611 53.4146C13.1108 53.0117 12.3784 51.8765 12.3174 50.375C12.1587 46.3467 11.9634 42.3184 12 38.2778C12.0366 32.8457 12.2197 27.4136 12.4272 21.9814C12.6104 17.3306 12.9155 12.6919 13.1597 8.04102C13.1597 8.02881 13.1597 8.00439 13.1597 7.99219C13.2939 5.96582 13.8433 5.18457 16.0771 4.90381C18.8115 4.56201 21.5825 4.40332 24.3413 4.1958C25.4155 4.11035 26.4897 4.11035 27.564 4.06152C27.7227 4.04932 27.8813 4.0127 28.04 3.98828C30.5425 4.00049 33.0449 4.00049 35.5474 4.00049ZM40.7109 28.2925H40.7231C40.7231 22.0059 40.7231 15.7314 40.7231 9.44482C40.7231 8.46826 40.7109 7.4917 40.6621 6.51514C40.6133 5.69727 40.3081 5.42871 39.5024 5.37988C38.6602 5.33105 37.8179 5.28223 36.9634 5.28223C32.5688 5.27002 28.1743 5.18457 23.792 5.31885C21.1187 5.39209 18.4453 5.78271 15.7842 6.08789C14.5635 6.23438 14.124 6.83252 14.063 8.06543C13.8921 11.8984 13.7212 15.7314 13.5503 19.5767C13.2329 27.0107 12.9521 34.4326 13.1963 41.8789C13.2817 44.6255 13.4404 47.3721 13.5991 50.1187C13.6479 51.022 13.9409 51.8276 14.9053 52.145C15.3081 52.2793 15.7231 52.4136 16.1382 52.438C18.25 52.5601 20.3618 52.731 22.4736 52.731C26.8193 52.7188 31.165 52.6089 35.4985 52.5234C36.6338 52.499 37.769 52.4258 38.9043 52.3403C39.7222 52.2793 40.3081 51.8521 40.4302 51.022C40.5767 50.0454 40.6987 49.0566 40.6987 48.0679C40.7231 41.4639 40.7109 34.8721 40.7109 28.2925Z" fill="#1D1929"/>
<path d="M14.8442 28.1444C14.8442 25.8861 14.8076 23.6156 14.8564 21.3573C14.9175 18.3666 15.064 15.3758 15.1494 12.3851C15.1738 11.6039 15.1372 10.8226 15.1372 10.0414C15.1494 7.99058 15.9917 7.03843 18.0181 6.85532C19.4463 6.73325 20.8745 6.6478 22.3027 6.53794C22.9009 6.48911 23.3892 6.6478 23.731 7.1727C24.0483 7.66099 24.5122 7.91733 25.0737 7.94175C26.7095 8.01499 28.3574 8.08823 29.9932 8.08823C30.396 8.08823 30.9087 7.8685 31.2017 7.57554C31.9097 6.89194 32.7031 6.50132 33.6675 6.4769C35.0347 6.45249 36.4019 6.39145 37.7568 6.44028C38.8066 6.4769 39.2583 6.9896 39.356 8.0394C39.9907 15.2782 40.0151 22.5291 39.8076 29.7923C39.6367 35.6273 39.771 41.4745 39.7588 47.3094C39.7588 47.8709 39.7466 48.4569 39.6245 49.0062C39.3804 50.117 38.6724 50.8128 37.5371 50.9715C36.585 51.1058 35.6328 51.1791 34.6685 51.2035C30.6401 51.3133 26.5996 51.4476 22.5713 51.4476C20.8745 51.4476 19.1655 51.2035 17.481 50.9593C15.9795 50.7396 15.0518 49.8119 14.7222 48.3104C14.2949 46.3817 14.3315 44.4286 14.4048 42.4754C14.5635 37.6903 14.771 32.9173 14.9541 28.1322C14.9175 28.1444 14.8809 28.1444 14.8442 28.1444ZM28.9678 50.5199C31.5557 50.3856 34.1313 50.2757 36.7192 50.117C38.2329 50.0316 38.7456 49.4823 38.8555 47.9564C38.8677 47.8221 38.8677 47.7 38.8677 47.5658C38.8433 43.806 38.7456 40.0462 38.7944 36.2865C38.8677 30.5736 39.0508 24.8729 39.1851 19.16C39.1973 18.5619 39.2583 17.9515 39.2217 17.3534C39.0508 14.3504 38.8555 11.3475 38.6846 8.34458C38.6235 7.36802 38.4038 7.09946 37.415 7.11167C36.2554 7.12388 35.1079 7.1727 33.9482 7.22153C33.1792 7.25815 32.4834 7.49009 31.9463 8.08823C31.3726 8.7352 30.6279 8.95493 29.7979 8.93052C28.272 8.88169 26.7461 8.83286 25.208 8.74741C24.3413 8.69858 23.5601 8.43003 23.0962 7.56333C22.9985 7.39243 22.6567 7.23374 22.4492 7.25815C20.8745 7.38022 19.2998 7.5145 17.7373 7.70981C16.6875 7.84409 16.1626 8.41782 16.0771 9.49204C16.0039 10.4442 15.9917 11.4085 15.9551 12.3729C15.8574 15.1561 15.6377 17.9271 15.6987 20.7103C15.8208 26.118 15.8086 31.5013 15.4668 36.909C15.2837 39.7655 15.3447 42.6341 15.3325 45.4906C15.3325 46.3451 15.4668 47.2118 15.6011 48.054C15.7842 49.1405 16.4678 49.7997 17.5542 50.0316C17.8228 50.0926 18.0913 50.1537 18.3721 50.1903C21.9121 50.6664 25.4399 50.6541 28.9678 50.5199Z" fill="#1D1929"/>
<path d="M26.5264 9.64062C29.7246 9.75049 32.5444 9.82373 35.352 9.95801C36.6948 10.019 37.3296 10.6416 37.4395 11.9966C37.5981 14.0107 37.708 16.0249 37.7935 18.0391C37.9399 21.2617 37.9399 24.4844 37.5981 27.6948C37.4883 28.6836 37.293 29.6846 37.0122 30.6489C36.7314 31.6499 35.9868 32.2114 34.9248 32.2603C32.7764 32.3701 30.6401 32.5532 28.4917 32.5532C25.3423 32.5532 22.1929 32.4189 19.0312 32.3213C18.7383 32.3091 18.4575 32.2236 18.1768 32.1382C17.0049 31.7964 16.4678 31.1128 16.5044 29.8921C16.5654 28.0732 16.6631 26.2544 16.7607 24.4355C16.9805 20.2485 17.3101 16.0615 17.1392 11.8623C17.0903 10.5684 17.5908 10.019 18.8726 9.97021C21.5459 9.83594 24.2192 9.73828 26.5264 9.64062ZM19.8613 31.3691C20.4595 29.0742 21.021 26.8892 21.5947 24.7041C21.8511 23.7642 22.3882 23.0073 23.1938 22.4458C23.7432 22.0674 24.2681 21.6523 24.8052 21.2495C22.1807 19.1255 22.3638 16.3057 24.2436 14.2305C25.8306 12.4849 28.3452 12.2773 30.0786 13.73C32.3613 15.6465 32.4468 18.1855 30.3105 20.9199C31.0796 21.5425 31.8608 22.1528 32.5933 22.812C32.9106 23.105 33.2158 23.52 33.3257 23.9229C33.7041 25.3022 34.0215 26.6938 34.29 28.0977C34.4853 29.1108 34.5464 30.1606 34.6562 31.186C35.5229 31.1738 35.9624 30.8931 36.1089 29.9409C36.3652 28.293 36.6216 26.6328 36.6948 24.9604C36.9023 20.6636 36.6216 16.3789 36.3286 12.082C36.2798 11.3374 36.0112 11.0566 35.2666 11.0078C34.229 10.9346 33.1914 10.8857 32.1538 10.8613C27.7227 10.7148 23.3037 10.7515 18.8848 11.0566C18.3721 11.0933 18.2012 11.313 18.189 11.7769C18.1645 12.7412 18.1157 13.6934 18.0791 14.6577C17.957 18.564 17.8228 22.458 17.7007 26.3643C17.6641 27.5361 17.6152 28.708 17.5908 29.8799C17.5786 30.4658 17.8838 30.8809 18.4453 31.0518C18.9336 31.2227 19.4463 31.2837 19.8613 31.3691ZM30.0054 21.9087C29.9565 22.0674 29.9077 22.1772 29.8833 22.2749C29.4316 23.8618 28.98 25.4609 28.5039 27.0479C28.4429 27.2676 28.2476 27.5605 28.0645 27.6094C27.9058 27.646 27.6128 27.4263 27.4785 27.2432C26.5264 25.9858 25.9282 24.5454 25.4033 23.0684C25.2812 22.7388 25.1714 22.4092 25.0371 22.0308C24.6465 22.3726 24.3169 22.6899 23.9629 22.9707C23.1816 23.5933 22.7056 24.4111 22.4736 25.3633C22.1929 26.4985 21.8755 27.6216 21.6191 28.7568C21.4238 29.5991 21.2895 30.4658 21.1186 31.3569C25.269 31.54 29.3462 31.5156 33.46 31.2593C33.3257 28.8057 32.9351 26.4741 32.2148 24.2036C32.166 24.0693 32.0928 23.9229 31.9951 23.8252C31.3481 23.2026 30.689 22.5801 30.0054 21.9087ZM27.1733 20.9932C29.041 21.0054 30.7256 19.3818 30.7256 17.563C30.7256 15.7075 29.0532 13.9009 27.3076 13.8887C25.3667 13.8765 23.7554 15.561 23.7432 17.5996C23.731 19.4307 25.3057 20.981 27.1733 20.9932ZM25.7329 21.7256C26.2944 23.3491 26.856 24.8384 27.8569 26.2788C28.2964 24.6919 28.6992 23.2148 29.1265 21.6401C27.979 22.0796 26.917 22.1406 25.7329 21.7256Z" fill="#1D1929"/>
<path d="M24.5732 43.0637C24.4756 44.8337 23.8286 46.0544 22.4981 46.8479C21.5093 47.4338 20.4839 47.4216 19.4829 46.8479C18.4087 46.2375 17.7983 45.322 17.8228 44.0647C17.8472 42.7951 18.2988 41.6843 19.1777 40.7566C20.8013 39.0598 23.3037 39.5114 24.207 41.6721C24.4023 42.1848 24.4878 42.7341 24.5732 43.0637ZM23.7554 43.4543C23.5845 42.9416 23.4868 42.3801 23.2427 41.904C22.6445 40.7688 21.4605 40.427 20.3496 41.0617C19.1411 41.7453 18.6528 42.8562 18.6772 44.1989C18.7017 45.4807 19.605 46.3474 20.8867 46.3718C22.4248 46.4084 23.6333 45.1511 23.7554 43.4543Z" fill="#1D1929"/>
<path d="M36.0479 43.2598C35.9502 45.0176 34.7417 46.7388 33.2036 47.166C31.1162 47.7397 28.98 45.9087 29.2363 43.748C29.3706 42.625 29.7734 41.6118 30.5791 40.7817C32.2026 39.0972 34.6318 39.5122 35.584 41.6484C35.8037 42.1489 35.8892 42.7104 36.0479 43.2598ZM35.1567 43.4062C34.9858 42.9058 34.8882 42.3686 34.644 41.9048C34.0459 40.7695 32.8496 40.4399 31.7388 41.0625C30.5547 41.7461 30.0542 42.8325 30.0664 44.1631C30.0786 45.5303 30.9941 46.397 32.3735 46.3848C33.8994 46.3603 35.0591 45.0786 35.1567 43.4062Z" fill="#1D1929"/>
<path d="M26.9902 37.7168C24.793 37.7168 22.6079 37.7168 20.4106 37.7168C20.2764 37.7168 20.1299 37.7168 20.0322 37.6558C19.9224 37.5825 19.8125 37.4482 19.8003 37.3262C19.7881 37.2407 19.9224 37.0942 20.02 37.0454C20.1665 36.9844 20.3374 36.9844 20.4961 36.9844C24.8174 36.9844 29.1387 36.9844 33.46 36.9966C33.7651 36.9966 34.229 36.8989 34.2168 37.3628C34.2046 37.7778 33.7651 37.6924 33.4722 37.6924C31.3115 37.7168 29.1509 37.7046 26.9902 37.7168Z" fill="#1D1929"/>
<path d="M26.9902 35.166C25.562 35.166 24.1338 35.166 22.6934 35.166C22.4248 35.166 22.1807 35.1172 22.1807 34.7876C22.1807 34.458 22.4492 34.4336 22.7056 34.4336C25.5376 34.4336 28.3696 34.4336 31.2017 34.4458C31.3726 34.4458 31.5557 34.4702 31.7021 34.5557C31.7754 34.5923 31.8364 34.8486 31.7876 34.8853C31.6655 35.0073 31.4946 35.1294 31.3359 35.1416C30.0542 35.1904 28.7725 35.2026 27.4785 35.2393C27.3198 35.2393 27.1489 35.2393 26.9902 35.2393C27.0024 35.2148 27.0024 35.1904 26.9902 35.166Z" fill="#1D1929"/>
<path d="M20.8867 44.6129C21.4116 43.9537 21.9243 43.319 22.4248 42.6842C22.5835 42.4889 22.73 42.2081 23.0474 42.4278C23.3647 42.6598 23.145 42.8795 22.9863 43.087C22.4492 43.7828 21.8999 44.4664 21.3872 45.1866C21.1187 45.5528 20.8623 45.5895 20.5449 45.2843C20.1421 44.9059 19.7393 44.5275 19.373 44.1124C19.2754 44.0026 19.2998 43.7706 19.2632 43.5875C19.4341 43.6241 19.6294 43.5997 19.7637 43.6974C20.1543 43.9781 20.4961 44.2955 20.8867 44.6129Z" fill="#1D1929"/>
<path d="M33.228 43.562C33.46 43.855 33.7285 44.1235 33.9116 44.4409C33.9971 44.5752 33.9849 44.856 33.8994 44.978C33.7285 45.1978 33.4966 45.1367 33.3257 44.917C33.1304 44.6729 32.9351 44.4409 32.7642 44.2334C32.459 44.502 32.1904 44.7827 31.8853 44.9902C31.7388 45.0879 31.4946 45.0513 31.2993 45.0757C31.3115 44.8682 31.2627 44.624 31.3604 44.4775C31.5923 44.1479 31.8975 43.8672 32.1782 43.5498C31.9951 43.269 31.7876 43.0127 31.6411 42.7319C31.5679 42.5977 31.6167 42.4145 31.6045 42.2437C31.7632 42.2803 31.9463 42.2681 32.0684 42.3535C32.3003 42.5122 32.5078 42.7319 32.7275 42.9395C32.9717 42.7075 33.2036 42.4756 33.4478 42.2803C33.5454 42.207 33.7041 42.2192 33.8384 42.207C33.8506 42.3413 33.9116 42.5122 33.8506 42.6099C33.6797 42.9272 33.46 43.208 33.228 43.562Z" fill="#1D1929"/>
</g>
<defs>
<clipPath id="clip0_612_34863">
<rect width="30.0537" height="50" fill="white" transform="translate(12 4)"/>
</clipPath>
</defs>
</svg>
