<svg width="56" height="57" viewBox="0 0 56 57" fill="none" xmlns="http://www.w3.org/2000/svg">
<path d="M11.7834 2.95941C4.62842 8.01337 -2.35012 23.332 8.98021 44.5273C20.3105 65.7226 37.9137 54.3806 43.5005 50.2865C49.0872 46.1728 61.4173 28.1117 47.127 11.5198C32.817 -5.09167 15.4099 0.393248 11.7834 2.95941Z" fill="#F9F9F9"/>
<g clip-path="url(#clip0_612_35023)">
<path d="M0 34.6537C0.0136571 33.3699 0.860395 32.5232 1.6525 31.6901C3.26404 29.9829 4.90288 28.3031 6.55539 26.637C6.85584 26.3365 6.93778 26.0907 6.85584 25.6946C6.54173 24.2743 6.26859 22.8403 5.98179 21.42C5.81791 20.6005 6.07739 20.3001 6.89681 20.3001C7.16995 20.3001 7.4431 20.3001 7.78452 20.3001C7.70258 20.0816 7.63429 19.904 7.59332 19.7128C7.27921 18.552 6.93778 17.4048 6.6783 16.2439C6.50076 15.4382 6.74659 15.1923 7.55235 15.0968C8.19423 15.0285 8.83611 14.9329 9.49165 14.8646C9.23217 13.9905 8.95903 13.1711 8.74052 12.3244C8.6176 11.8464 8.54932 11.3684 8.48103 10.8767C8.38543 10.2485 8.68589 9.93438 9.32777 9.90707C10.1472 9.8661 10.953 9.81147 11.7997 9.75684C11.5948 8.85547 11.4036 8.00874 11.2124 7.162C11.1578 6.92983 11.1168 6.69766 11.1032 6.46549C11.0212 5.63241 11.3217 5.14076 12.1684 5.04516C15.173 4.73104 18.1775 4.30767 21.1821 4.22573C25.4431 4.10282 29.7041 4.23939 33.9651 4.25305C34.2519 4.25305 34.5387 4.25305 34.8665 4.25305C34.8665 3.84333 34.8665 3.46094 34.8665 3.0922C34.8665 2.31374 35.1533 1.98598 35.9727 2.01329C37.0106 2.0406 38.0349 2.16352 39.0728 2.24546C39.783 2.31374 40.4932 2.36837 41.1897 2.47763C41.9681 2.60054 42.173 2.84637 42.2003 3.63848C42.214 3.96625 42.2003 4.29402 42.2003 4.66276C42.7466 4.71739 43.2656 4.75836 43.7845 4.81299C44.9181 4.9359 45.2595 5.19538 45.437 6.32892C45.6282 7.4488 45.7238 8.59599 45.8604 9.79781C46.0652 9.81147 46.3247 9.82513 46.5979 9.85244C47.1851 9.89341 47.4173 10.1119 47.4173 10.7128C47.431 11.9693 47.4173 13.2257 47.4173 14.5641C47.7451 14.5914 48.2094 14.6461 48.6737 14.687C49.5068 14.7826 49.7117 15.0558 49.5615 15.8889C49.3293 17.1726 49.1244 18.47 48.8786 19.8767C49.5751 19.8767 50.2033 19.8631 50.8316 19.8767C51.5417 19.8904 51.7466 20.1225 51.7056 20.8191C51.569 23.0178 51.4188 25.2166 51.2686 27.4154C51.2413 27.8661 51.2959 28.1802 51.651 28.5626C52.9621 29.9966 54.2049 31.4989 55.4476 33.0012C55.6935 33.3016 55.7891 33.7386 55.953 34.121C55.953 34.8175 55.953 35.5004 55.953 36.1969C55.9256 36.3744 55.871 36.552 55.871 36.7295C55.7481 38.9966 55.3247 41.209 54.7511 43.3805C54.2868 45.1013 53.5766 45.7159 51.7876 45.8115C47.8816 46.0163 43.9757 46.2075 40.0561 46.3441C33.5417 46.5763 27.0273 46.7538 20.5129 46.945C14.9272 47.1089 9.34143 46.945 3.76935 46.3441C2.4173 46.1939 1.44765 45.593 1.16085 44.1999C0.860395 42.7933 0.573596 41.3866 0.355083 39.9663C0.191199 38.9283 0.122914 37.8767 0.0136571 36.8388C0 36.1013 0 35.3775 0 34.6537ZM54.5599 34.162C53.8225 34.162 53.2898 34.1757 52.7435 34.162C48.0728 34.0254 43.3885 33.8615 38.7178 33.725C37.912 33.6977 37.8164 33.7933 37.5159 34.5444C37.1335 35.5414 36.7238 36.5383 36.3414 37.5353C35.9863 38.4776 35.2898 38.901 34.3202 38.901C30.3733 38.8737 26.4264 38.8464 22.4659 38.7781C21.4279 38.7644 20.6222 38.2864 20.1851 37.2758C19.8164 36.4018 19.393 35.555 19.0379 34.681C18.8467 34.2166 18.5599 34.0391 18.0956 34.0254C17.4537 34.0118 16.8255 33.9708 16.1836 33.9571C11.39 33.7796 6.61001 33.8889 1.83005 34.2713C1.43399 34.2986 1.28376 34.5034 1.29742 34.8722C1.31108 35.4048 1.31108 35.9238 1.33839 36.4564C1.43399 38.9829 1.85736 41.4412 2.54021 43.8722C2.7041 44.4594 3.04552 44.8145 3.67375 44.8691C4.12443 44.9101 4.57511 45.0194 5.0258 45.033C9.39605 45.2106 13.7527 45.5656 18.1229 45.511C27.1366 45.3881 36.1366 45.074 45.1502 44.8008C47.4446 44.7326 49.7253 44.514 52.0061 44.3092C52.8938 44.2273 53.1123 43.9951 53.3035 43.1074C53.522 42.0968 53.7678 41.0861 53.9044 40.0619C54.1639 38.1362 54.3414 36.2106 54.5599 34.162ZM9.58725 32.5641C9.80577 32.5641 10.0243 32.5641 10.2428 32.5641C12.9059 32.6051 15.5554 32.6461 18.2185 32.687C19.1335 32.7007 19.83 33.0694 20.2261 33.9298C20.5948 34.7356 21.0046 35.5414 21.305 36.3744C21.6191 37.2075 22.1791 37.4943 23.0121 37.4943C26.7542 37.508 30.5099 37.5353 34.2519 37.5763C34.7709 37.5763 35.044 37.3987 35.2352 36.9207C35.6995 35.7599 36.2185 34.6127 36.7102 33.4655C36.9423 32.9192 37.3657 32.5914 37.953 32.5232C38.2944 32.4822 38.6495 32.4822 38.9909 32.4822C42.2549 32.5368 45.5053 32.6051 48.7693 32.6734C48.9605 32.6734 49.1517 32.6734 49.4249 32.6734C49.7117 30.1605 49.9848 27.7159 50.258 25.2576C50.0395 25.2439 49.9439 25.2303 49.8619 25.2303C42.2413 25.0664 34.607 25.1074 26.9863 25.4078C26.522 25.4215 26.044 25.3532 25.5797 25.2439C24.9514 25.0937 24.5144 24.6977 24.4734 23.9875C24.4598 23.5641 24.2549 23.4276 23.8452 23.4412C22.1108 23.4822 20.39 23.4958 18.6555 23.5232C18.4917 23.5232 18.3278 23.5505 18.1502 23.5778C18.1366 23.769 18.1366 23.9192 18.1229 24.0831C18.0273 25.2849 17.7405 25.5717 16.5387 25.6127C13.9712 25.681 11.4036 25.7356 8.83611 25.7902C8.68589 25.7902 8.522 25.8039 8.35812 25.8175C8.78149 28.071 9.17754 30.2697 9.58725 32.5641ZM50.2989 21.2151C36.041 20.8464 21.783 20.901 7.45675 21.5429C7.72989 22.854 7.98938 24.0285 8.2352 25.1757C11.1032 25.0391 13.9029 24.9162 16.7026 24.7933C17.0167 24.7796 17.1669 24.6703 17.1669 24.3289C17.1669 23.9875 17.2489 23.6461 17.2625 23.291C17.2762 22.9086 17.4674 22.731 17.8498 22.731C19.9393 22.7174 22.0425 22.6764 24.132 22.6764C24.8695 22.6764 25.129 22.9086 25.2246 23.6324C25.3065 24.247 25.6479 24.4928 26.2079 24.5065C27.0273 24.5201 27.8467 24.5065 28.6662 24.4928C35.6313 24.4518 42.61 24.3972 49.5751 24.3562C49.8073 24.3562 50.0395 24.3562 50.3263 24.3562C50.2989 23.2773 50.2989 22.2804 50.2989 21.2151ZM8.50835 18.6612C9.71017 18.6612 10.871 18.6749 12.0319 18.6476C12.4006 18.6339 12.6191 18.3881 12.6601 18.0057C12.6737 17.7735 12.6874 17.5277 12.7011 17.2955C12.7147 16.9268 12.8923 16.7219 13.2747 16.7219C14.5448 16.7083 15.8285 16.681 17.0986 16.6673C17.7678 16.6537 18.2322 16.8995 18.478 17.5823C18.5463 17.7872 18.8741 18.0194 19.0926 18.033C19.7071 18.1013 20.3217 18.0467 20.9499 18.0603C25.9757 18.074 31.0015 18.0876 36.0273 18.1013C36.2185 18.1013 36.5326 18.1286 36.6009 18.033C37.0379 17.3092 37.7618 17.4048 38.4036 17.3911C40.2064 17.3365 42.0091 17.3775 43.8118 17.3638C44.3445 17.3638 44.7815 17.4321 44.8907 18.0194C45.8604 17.9784 46.7891 17.9374 47.7178 17.8691C47.8407 17.8555 48.0455 17.7326 48.0592 17.637C48.1411 17.1043 48.1821 16.5717 48.2504 16.0391C48.1275 15.9981 48.0865 15.9708 48.0319 15.9708C45.3687 15.7796 42.692 15.5201 40.0288 15.4245C30.8513 15.1377 21.6874 15.0421 12.5235 15.7523C11.0622 15.8615 9.61457 16.121 8.11229 16.3122C8.22155 17.1726 8.37177 17.9374 8.50835 18.6612ZM10.2428 12.8706C11.1442 12.7751 11.9499 12.6658 12.7693 12.6248C13.22 12.5975 13.4795 12.4609 13.5478 12.0103C13.6297 11.5323 13.9302 11.3547 14.4082 11.3684C15.1047 11.3957 15.7876 11.3684 16.4841 11.3547C17.563 11.3274 18.6282 11.2455 19.7071 11.2728C20.0212 11.2728 20.4719 11.464 20.6222 11.6961C20.8816 12.1332 21.1958 12.2424 21.6464 12.2424C25.5933 12.2697 29.5539 12.2971 33.5008 12.3244C34.5933 12.338 35.6859 12.338 36.7785 12.338C38.0349 12.3244 39.2777 12.2971 40.5341 12.2971C42.3778 12.2971 44.2079 12.3244 46.0516 12.338C46.0926 12.338 46.1472 12.2971 46.2018 12.2697C46.2018 12.0239 46.1882 11.7917 46.2018 11.5596C46.2291 11.2181 46.0789 11.0952 45.7238 11.0679C43.088 10.945 40.4522 10.7401 37.8164 10.6582C29.6495 10.3987 21.4689 10.3441 13.302 10.7401C12.2094 10.7948 11.1168 10.945 9.98331 11.0679C10.0652 11.7098 10.1472 12.2561 10.2428 12.8706ZM44.3581 7.33954C44.3171 7.05274 44.2762 6.7796 44.2352 6.4928C44.1942 6.17869 44.003 6.04212 43.6753 6.01481C42.2822 5.91921 40.8892 5.75532 39.4825 5.71435C34.3748 5.56412 29.2534 5.40024 24.1457 5.33195C20.6085 5.27733 17.085 5.45487 13.5888 6.02846C12.4416 6.21966 12.3187 5.97384 12.6328 7.3532C12.6601 7.48977 12.6874 7.62634 12.7284 7.80388C13.5478 7.7356 14.3399 7.68097 15.1184 7.62634C15.214 7.28491 15.3096 6.98446 15.3915 6.684C15.4871 6.35623 15.692 6.23332 16.0334 6.23332C17.4127 6.23332 18.8058 6.19235 20.1851 6.19235C21.0592 6.19235 21.8649 6.35623 22.22 7.32588C26.522 7.32588 30.7967 7.32588 35.0713 7.31223C35.3718 7.31223 35.6722 7.17566 35.9727 7.12103C36.4507 7.03909 36.9287 6.8752 37.4067 6.90252C39.7147 7.02543 42.0091 7.18931 44.3581 7.33954ZM10.6115 14.7417C19.2291 13.9496 27.8058 14.1408 36.3824 14.1271C36.3551 13.7174 36.3414 13.4033 36.3141 13.0618C36.1229 13.0482 35.959 13.0345 35.7951 13.0345C31.3703 13.0345 26.9454 13.0345 22.5205 13.0482C22.0698 13.0482 21.5918 13.1165 21.1548 13.0209C20.7997 12.9389 20.3763 12.7477 20.1715 12.4609C19.912 12.1059 19.6798 11.9966 19.2701 12.0239C17.8225 12.1059 16.3612 12.2015 14.9135 12.2424C14.5038 12.2561 14.2716 12.379 14.176 12.7751C14.0668 13.253 13.7527 13.376 13.2883 13.376C12.3323 13.3486 11.3627 13.3623 10.3111 13.3623C10.434 13.9086 10.5159 14.3046 10.6115 14.7417ZM35.4264 9.26519C35.4264 8.9101 35.4264 8.50039 35.4264 8.19994C32.2033 8.19994 29.0212 8.19994 25.8391 8.19994C24.5417 8.19994 23.258 8.15897 21.9605 8.14531C21.5918 8.14531 21.3323 8.06337 21.3596 7.58537C21.3733 7.40783 21.1411 7.13469 20.9499 7.0664C20.6768 6.95714 20.349 6.94349 20.0349 6.95714C18.997 6.9708 17.959 7.03909 16.9211 7.03909C16.3885 7.03909 16.0607 7.18931 15.9651 7.7356C15.8832 8.28188 15.5417 8.41845 15.0228 8.39113C14.2853 8.35016 13.5341 8.37748 12.742 8.37748C12.7693 8.84182 12.783 9.22422 12.7967 9.51101C20.39 9.41541 27.8741 9.34713 35.4264 9.26519ZM36.5599 18.8661C36.3551 18.8661 36.1502 18.8661 35.959 18.8661C30.3869 18.8934 24.8149 18.9071 19.2564 18.9617C18.478 18.9617 17.9181 18.7842 17.6859 17.9511C17.6313 17.7599 17.3308 17.5277 17.1533 17.5277C15.9924 17.5277 14.8452 17.5823 13.698 17.6233C13.4522 19.0846 13.0152 19.467 11.6768 19.467C11.3627 19.467 11.0622 19.426 10.7481 19.426C10.0652 19.4124 9.36874 19.426 8.64492 19.426C8.7132 19.7128 8.78149 20.0133 8.83611 20.2591C18.0956 20.0679 27.3141 19.8631 36.5599 19.6719C36.5599 19.3987 36.5599 19.1666 36.5599 18.8661ZM8.44006 32.5914C8.04401 30.9526 7.66161 29.3684 7.2519 27.7022C5.42185 29.464 3.64643 31.1711 1.85736 32.8782C1.88467 32.9192 1.89833 32.9465 1.92564 32.9875C4.08346 32.8509 6.24127 32.7144 8.44006 32.5914ZM41.1897 9.45639C41.1897 9.27884 41.1897 9.07399 41.1897 8.85547C41.2033 8.09068 41.0941 7.94045 40.3156 7.84485C39.5781 7.76291 38.827 7.72194 38.0895 7.68097C36.6555 7.59903 36.3961 7.85851 36.4234 9.30616C36.4234 9.31981 36.437 9.33347 36.4917 9.45639C37.9803 9.45639 39.5372 9.45639 41.1897 9.45639ZM43.5523 18.552C41.8998 18.552 40.2883 18.5247 38.6768 18.5656C37.7481 18.5793 37.7481 18.6203 37.6252 19.508C37.6115 19.549 37.6388 19.6036 37.6525 19.7128C37.8574 19.7128 38.0486 19.7128 38.2534 19.7128C39.6737 19.7265 41.0941 19.7265 42.5144 19.7401C43.6206 19.7538 43.6206 19.7538 43.5523 18.552ZM35.8225 4.29402C37.6115 4.38962 39.3323 4.49887 41.0395 4.59447C41.0395 4.22573 41.0395 3.95259 41.0395 3.59751C39.346 3.43362 37.6798 3.26974 36 3.10585C35.9317 3.57019 35.8771 3.88431 35.8225 4.29402ZM53.563 32.7007C52.7162 31.6354 51.9241 30.6385 51.0501 29.5186C50.8862 30.6521 50.7496 31.6491 50.5857 32.7007C51.569 32.7007 52.4977 32.7007 53.563 32.7007ZM43.0607 14.3183C44.0713 14.3593 45.0546 14.4139 46.0652 14.4549C46.0926 13.9632 46.1199 13.5535 46.1608 13.0892C45.0683 13.0892 44.0303 13.0892 42.9651 13.0892C42.9924 13.4989 43.0334 13.8813 43.0607 14.3183ZM37.4203 14.209C38.9772 14.209 40.4522 14.209 42.0774 14.209C41.9135 13.9359 41.8042 13.5398 41.6677 13.5262C40.2883 13.4033 38.8953 13.335 37.475 13.253C37.4476 13.6354 37.434 13.8676 37.4203 14.209ZM44.7132 19.7401C45.7238 19.7401 46.6662 19.7401 47.6495 19.7401C47.7178 19.3987 47.786 19.071 47.868 18.6886C46.8164 18.6886 45.8194 18.6886 44.7951 18.6886C44.7678 19.03 44.7405 19.3578 44.7132 19.7401ZM42.3096 9.62027C43.047 9.66124 43.7435 9.70221 44.5083 9.74318C44.481 9.21056 44.4674 8.73256 44.4401 8.25456C43.6889 8.21359 43.0061 8.17262 42.2959 8.13165C42.3096 8.62331 42.3096 9.08764 42.3096 9.62027Z" fill="#1D1929"/>
<path d="M28.912 39.7756C30.1958 39.7756 31.4932 39.7619 32.777 39.7756C33.173 39.7756 33.5827 39.8029 33.9651 39.8849C34.8938 40.0897 35.3855 40.6633 35.4128 41.4827C35.4537 42.5616 35.0031 43.422 34.088 43.5996C32.7906 43.8454 31.4659 44.0229 30.1548 44.0229C27.8468 44.0093 25.5387 43.8727 23.2443 43.7361C21.9879 43.6542 21.6465 43.2445 21.6601 42.0154C21.6738 40.7726 22.1518 40.2126 23.3536 40.1443C25.1017 40.0351 26.8361 39.9805 28.5842 39.9122C28.6935 39.9122 28.8028 39.9122 28.912 39.9122C28.912 39.8575 28.912 39.8166 28.912 39.7756ZM28.7208 40.7726C28.7208 40.8408 28.7208 40.9091 28.7208 40.9774C27.1912 40.9774 25.6616 40.9638 24.132 40.9911C23.7906 40.9911 23.4355 41.0457 23.1214 41.1686C22.4386 41.4418 22.343 42.2066 22.9575 42.6163C23.2307 42.7938 23.5994 42.9031 23.9272 42.9167C25.1017 42.9987 26.2899 43.0943 27.4644 43.067C29.431 43.0396 31.3839 42.9577 33.3506 42.8211C34.1427 42.7665 34.4704 42.2339 34.4022 41.4418C34.3612 40.9228 34.129 40.7726 33.255 40.7589C31.739 40.7726 30.2368 40.7726 28.7208 40.7726Z" fill="#1D1929"/>
</g>
<defs>
<clipPath id="clip0_612_35023">
<rect width="55.9393" height="45" fill="white" transform="translate(0 2)"/>
</clipPath>
</defs>
</svg>
