<svg width="38" height="50" viewBox="0 0 38 50" fill="none" xmlns="http://www.w3.org/2000/svg">
<path d="M22.8051 0C23.2331 0.134507 23.6733 0.244559 24.089 0.403522C24.6515 0.635852 25.1039 1.0516 25.2874 1.62631C25.5197 2.31108 25.7031 3.03253 25.7887 3.75397C25.8865 4.53656 25.4341 5.11127 24.6637 5.38029C24.3091 5.50257 23.9423 5.60039 23.6121 5.75935C23.4165 5.85718 23.2575 6.0406 23.1352 6.29738C23.3064 6.30961 23.4776 6.32184 23.6488 6.33407C25.7153 6.44412 27.7819 6.49303 29.8484 6.66422C32.1105 6.84764 33.798 7.97261 34.8741 9.99022C36.0968 12.2768 36.6471 14.7713 37.0751 17.3025C37.6131 20.4818 37.7354 23.6855 37.4786 26.9014C37.4052 27.8919 37.2585 28.8824 37.0751 29.8484C36.7327 31.6459 36.0235 32.2573 34.2015 32.3796C32.1839 32.5018 30.1663 32.5874 28.1487 32.6852C27.9897 32.6975 27.8308 32.6975 27.6229 32.7097C27.5862 32.9787 27.5495 33.2233 27.5128 33.4801C27.3661 34.495 26.7669 35.1431 25.7642 35.3143C24.6393 35.4977 23.5143 35.62 22.3037 35.7911C22.3037 35.9379 22.3037 36.1091 22.3037 36.2803C22.1692 40.3155 22.047 44.3507 21.9002 48.3981C21.8513 49.5353 21.4478 49.9511 20.2861 49.9878C19.2223 50.0245 18.1462 50 17.0824 49.8899C16.2754 49.8044 15.8352 49.2908 15.7618 48.4837C15.664 47.4933 15.5906 46.5028 15.6028 45.5123C15.6273 42.4309 15.7007 39.3617 15.7496 36.2803C15.7496 36.1702 15.7496 36.0602 15.7496 35.889C14.8447 35.8278 13.9521 35.7911 13.0594 35.7056C12.5703 35.6689 12.0812 35.6077 11.6165 35.4977C10.9807 35.3509 10.6138 34.9107 10.5527 34.2504C10.516 33.8102 10.4916 33.3822 10.4671 32.8931C9.45219 32.8564 8.42504 32.8198 7.41013 32.7708C5.89386 32.6853 4.3776 32.6608 2.87356 32.4774C0.966007 32.245 0.0611405 31.1812 0.0244568 29.2492C-0.0366829 25.5319 0.0611405 21.8146 0.379067 18.1096C0.53803 16.2265 0.721449 14.3434 1.28393 12.5336C2.13989 9.73343 3.92517 7.86256 6.85987 7.34898C8.69406 7.03106 10.5772 6.90878 12.4358 6.76204C14.3311 6.61531 16.2387 6.55417 18.1829 6.44412C18.1952 6.22402 18.2074 6.05282 18.2196 5.88163C18.3052 4.43874 18.3908 2.99584 18.4886 1.54072C18.5375 0.843727 18.99 0.464661 19.6258 0.305698C20.1639 0.171191 20.7019 0.0978234 21.2399 0C21.7657 0 22.2915 0 22.8051 0ZM9.23209 8.0582C11.8366 9.62338 13.3162 11.9589 14.3311 14.6613C15.2849 17.1925 15.7251 19.8215 15.7618 22.4994C15.7985 25.3485 15.7129 28.1976 15.6762 31.0467C15.6762 31.2546 15.6762 31.4625 15.6762 31.707C15.8474 31.707 15.9819 31.707 16.1042 31.707C20.1761 31.6336 24.248 31.5725 28.3199 31.4625C30.3497 31.4013 32.3796 31.2301 34.4216 31.0956C35.2898 31.0345 35.5588 30.8144 35.7178 29.9829C35.9257 28.8824 36.1213 27.7696 36.2069 26.6569C36.4392 23.551 36.2436 20.4696 35.7056 17.4126C35.302 15.0893 34.8496 12.7782 33.7002 10.6628C32.8809 9.13426 31.6459 8.24162 29.934 7.9237C27.6229 7.50795 25.2996 7.58132 22.9641 7.60577C22.9274 7.60577 22.8785 7.64245 22.854 7.65468C22.854 8.52287 22.854 9.36659 22.854 10.2103C22.8418 12.6314 22.8662 15.0648 22.7929 17.4859C22.7562 18.7576 21.729 19.687 20.5429 19.6625C19.3446 19.6381 18.5742 18.7943 18.5253 17.437C18.4153 14.3434 18.3174 11.2497 18.2196 8.15603C18.2196 7.99706 18.2074 7.85033 18.1952 7.65468C15.1626 7.77696 12.1912 7.9237 9.23209 8.0582ZM14.5146 31.6703C14.5512 30.582 14.6001 29.5427 14.6368 28.5033C14.7469 25.3118 14.8936 22.1203 14.3923 18.9411C13.9276 15.9941 13.0105 13.2184 11.1152 10.8462C10.2348 9.74566 9.20763 8.82856 7.80142 8.47395C7.618 8.42504 7.41013 8.40059 7.22671 8.43727C4.27978 9.04867 2.45781 10.8217 1.99315 13.8298C1.61409 16.2998 1.36953 18.8066 1.24725 21.3133C1.11274 24.0157 1.16165 26.718 1.19834 29.4204C1.21057 30.4842 1.77305 31.0589 2.8002 31.279C3.11812 31.3402 3.44828 31.3891 3.7662 31.4013C5.88163 31.4991 7.99707 31.6092 10.1125 31.6703C11.5676 31.707 13.0105 31.6703 14.5146 31.6703ZM16.361 35.8767C16.361 36.0479 16.361 36.1335 16.361 36.2313C16.4343 38.6892 16.4955 41.147 16.5933 43.6048C16.6422 45.0477 16.7278 46.5028 16.8379 47.9457C16.8868 48.6427 17.1802 48.8873 17.8772 48.9239C18.6109 48.9606 19.3446 48.9362 20.0783 48.9117C20.7263 48.8995 20.8608 48.765 20.8608 48.1291C20.9342 44.1917 20.9954 40.2543 21.0565 36.3169C21.0565 36.158 21.0565 36.0112 21.0565 35.8767C19.4546 35.8767 17.9506 35.8767 16.361 35.8767ZM19.2957 10.0636C19.3813 10.0636 19.4546 10.0636 19.5402 10.0636C19.5402 12.2891 19.528 14.5268 19.5525 16.7523C19.5525 17.1191 19.6136 17.4982 19.6992 17.865C19.797 18.3297 20.1027 18.5865 20.6041 18.5987C21.1176 18.6109 21.5089 18.3663 21.6312 17.8772C21.7413 17.437 21.8269 16.9846 21.8269 16.5322C21.8513 13.8176 21.8513 11.0907 21.8758 8.37613C21.8758 7.82587 21.888 7.26339 21.9491 6.71313C22.0714 5.72267 22.5483 4.98899 23.551 4.63438C24.9939 4.13304 25.0428 4.02299 24.6637 2.53118C24.627 2.37222 24.5659 2.22548 24.5048 2.06652C24.3091 1.58963 23.979 1.25948 23.4654 1.12497C22.4138 0.843727 21.3744 0.917095 20.335 1.21056C19.8459 1.34507 19.6014 1.62631 19.5891 2.15212C19.4913 4.79335 19.3935 7.43458 19.2957 10.0636ZM11.0907 32.9543C11.0663 34.1159 11.372 34.5561 12.3135 34.6295C16.6667 34.9963 21.0076 34.9107 25.324 34.2504C26.2167 34.1159 26.5102 33.7002 26.3634 32.8075C21.2888 32.8442 16.202 32.8931 11.0907 32.9543Z" fill="#1D1929"/>
</svg>
