<svg width="67" height="57" viewBox="0 0 67 57" fill="none" xmlns="http://www.w3.org/2000/svg">
<path d="M1.89169 40.7245C10.6611 56.6297 28.5073 58.0456 38.3168 56.5353C47.2754 55.1666 66.658 47.7096 66.0198 33.2674C65.4052 18.8253 54.6739 -1.87032 32.3366 0.135533C9.9993 2.11778 -5.57772 27.1555 1.89169 40.7245Z" fill="#F9F9F9"/>
<g clip-path="url(#clip0_612_35026)">
<path d="M26.5055 4C27.4339 4.06108 28.3501 4.13438 29.2785 4.19546C30.61 4.28097 31.1842 4.79404 31.1964 6.1378C31.2331 9.66821 31.2819 13.2108 31.2331 16.7413C31.1964 19.3066 31.0376 21.8842 30.891 24.4495C30.8299 25.5001 30.6833 26.5507 30.5123 27.6013C30.3413 28.6152 29.7061 28.8717 28.9242 28.2121C28.3989 27.7723 27.9347 27.2226 27.5072 26.6729C27.1651 26.2331 26.7987 26.0865 26.2489 26.1231C21.4236 26.3919 16.5861 26.5751 11.7486 26.3064C10.3559 26.2331 9.87952 25.7322 9.79401 24.3396C9.58634 20.9558 9.31758 17.5842 9.15878 14.2003C9.04883 11.7327 9.01218 9.25287 9.0244 6.78524C9.0244 5.44149 9.80622 4.58637 11.15 4.48864C14.0207 4.29318 16.9037 4.19546 19.7867 4.04886C20.0188 4.03665 20.2387 4.01222 20.4586 4C22.4742 4 24.4898 4 26.5055 4ZM29.3884 27.1615C29.4495 27.1248 29.5106 27.1004 29.5717 27.0638C29.6938 25.6101 29.8649 24.1441 29.9259 22.6904C30.0481 19.4899 30.1458 16.2771 30.1703 13.0765C30.1947 10.6821 30.097 8.28781 30.0603 5.89348C30.0481 5.47813 29.8526 5.27046 29.4373 5.23381C28.5578 5.16052 27.6904 5.00171 26.8109 5.00171C21.7657 4.98949 16.7205 5.11165 11.6875 5.55143C10.4903 5.66137 10.0505 6.11336 9.92838 7.29831C9.90395 7.50599 9.90395 7.72587 9.91617 7.93355C10.0628 13.4796 10.4048 19.0257 10.9667 24.5473C11.0156 24.9748 11.1866 25.1947 11.6264 25.2192C12.7747 25.268 13.9352 25.4024 15.0835 25.3902C18.8705 25.3291 22.6696 25.2192 26.4566 25.0848C27.2629 25.0603 27.8248 25.3169 28.289 25.9521C28.6066 26.3919 29.022 26.7584 29.3884 27.1615Z" fill="#1D1929"/>
<path d="M44.4874 4.0005C44.634 4.01271 44.7806 4.04936 44.915 4.04936C47.7979 4.17152 50.6687 4.28146 53.5517 4.40362C53.8449 4.41584 54.138 4.45249 54.419 4.51357C55.5429 4.73346 56.2758 5.51528 56.3003 6.68801C56.3369 8.25166 56.3369 9.8153 56.2636 11.3789C56.0437 15.7401 55.775 20.0889 55.5062 24.45C55.4329 25.7694 54.9199 26.2336 53.6128 26.3069C49.4227 26.539 45.2448 26.4535 41.0669 26.2214C40.3218 26.1847 39.5644 26.1603 38.8192 26.1114C38.4405 26.087 38.1718 26.2336 37.9396 26.5268C37.561 26.991 37.17 27.443 36.7669 27.895C36.6325 28.0415 36.4859 28.1637 36.3271 28.2736C35.582 28.7989 34.9834 28.5913 34.8246 27.6873C34.6413 26.6611 34.507 25.6228 34.4337 24.5844C33.9695 18.5497 33.945 12.515 34.0916 6.46813C34.0916 6.41926 34.0916 6.3704 34.0916 6.32153C34.1527 4.75789 34.6291 4.26925 36.1805 4.17152C37.0601 4.11044 37.9274 4.04936 38.807 3.98828C40.7127 4.0005 42.6062 4.0005 44.4874 4.0005ZM35.7774 27.0887C35.8263 27.1131 35.8874 27.1376 35.9362 27.162C36.3149 26.7467 36.7303 26.368 37.0601 25.916C37.5121 25.3052 38.0496 25.0486 38.807 25.0853C41.9831 25.2197 45.1471 25.3662 48.3232 25.4151C50.1068 25.4395 51.9025 25.2929 53.686 25.2197C54.1258 25.2074 54.3335 24.9876 54.3579 24.5478C54.3824 24.0958 54.4312 23.6438 54.4801 23.1918C55.0054 18.1222 55.2741 13.0281 55.4085 7.93404C55.4207 7.57978 55.3841 7.2133 55.323 6.87125C55.213 6.22381 54.8466 5.77181 54.1747 5.63744C53.7593 5.56414 53.344 5.47863 52.9164 5.46641C48.2133 5.29539 43.5101 5.12437 38.807 5.00221C37.8419 4.97778 36.8646 5.1488 35.8874 5.2221C35.4842 5.25874 35.2643 5.4542 35.2643 5.88176C35.2521 6.33375 35.1911 6.79796 35.2033 7.24995C35.2643 12.5028 35.3132 17.7679 35.4232 23.0208C35.4598 24.389 35.6553 25.7327 35.7774 27.0887Z" fill="#1D1929"/>
<path d="M33.945 43.8479C34.1038 40.3664 34.2504 36.8848 34.4459 33.4155C34.5069 32.4138 34.6535 31.4121 34.8246 30.4103C34.9956 29.4331 35.6308 29.1887 36.3882 29.824C36.9257 30.276 37.4021 30.8379 37.8419 31.3876C38.1717 31.803 38.5382 31.9496 39.0635 31.9129C43.9132 31.6442 48.763 31.4487 53.6127 31.7297C54.9687 31.803 55.4696 32.3038 55.5306 33.672C55.8116 39.0715 56.0926 44.4709 56.3613 49.8582C56.3858 50.3957 56.3613 50.9332 56.3125 51.4707C56.1903 52.6434 55.4573 53.413 54.2724 53.5474C53.1119 53.6818 51.9391 53.7917 50.7664 53.8039C46.1976 53.865 41.6166 53.8895 37.0479 53.9261C36.6203 53.9261 36.205 53.8772 35.7774 53.8284C34.739 53.7184 34.1893 53.1687 34.1405 52.1059C34.0794 50.7133 34.0427 49.3085 34.0305 47.9036C34.0183 46.5476 34.0305 45.2039 34.0305 43.8479C34.0061 43.8479 33.9817 43.8479 33.945 43.8479ZM35.9484 30.8745C35.8873 30.899 35.8263 30.9234 35.7652 30.9601C35.643 32.4138 35.472 33.8797 35.4109 35.3334C35.2888 38.534 35.191 41.7468 35.1666 44.9474C35.1422 47.3295 35.2399 49.6994 35.2766 52.0815C35.2888 52.5701 35.5209 52.7778 35.9851 52.8144C36.828 52.8877 37.6709 53.0221 38.5138 53.0343C43.559 53.0343 48.6042 52.9244 53.6372 52.4846C54.8588 52.3747 55.2985 51.9105 55.4085 50.7011C55.4329 50.4568 55.4207 50.2124 55.4207 49.9681C55.3596 48.4045 55.3474 46.8408 55.2375 45.2772C54.9687 41.3314 54.6511 37.3857 54.3579 33.4399C54.3213 33.0246 54.1258 32.8291 53.7105 32.8047C52.5377 32.7436 51.365 32.6214 50.2045 32.6336C46.4297 32.6947 42.655 32.8047 38.8803 32.939C38.0862 32.9635 37.5121 32.7192 37.0479 32.0839C36.7303 31.6442 36.3149 31.2777 35.9484 30.8745Z" fill="#1D1929"/>
<path d="M31.2331 43.8856C31.2331 46.4143 31.2331 48.9308 31.2331 51.4595C31.2331 51.6671 31.2208 51.887 31.2086 52.0947C31.1231 53.2064 30.5612 53.7927 29.4373 53.8294C27.0796 53.9149 24.7219 54.0126 22.3643 54.0004C19.4202 53.976 16.4762 53.8416 13.5321 53.7439C12.7381 53.7194 11.944 53.6583 11.15 53.5606C9.84288 53.4018 9.06106 52.6078 9.03663 51.3007C8.99998 49.6637 9.0122 48.0146 9.09771 46.3776C9.3176 42.1387 9.57413 37.8997 9.83067 33.6486C9.90396 32.3048 10.4048 31.8162 11.7364 31.7429C15.902 31.5108 20.0677 31.5963 24.2333 31.8162C25.0029 31.8528 25.7603 31.8773 26.5299 31.9261C26.9086 31.9505 27.1774 31.804 27.4095 31.5108C27.7882 31.0466 28.1791 30.5946 28.5822 30.1426C28.7166 29.996 28.8632 29.8738 29.022 29.7639C29.7671 29.2508 30.3535 29.4585 30.5123 30.3503C30.6956 31.3642 30.8422 32.3781 30.9032 33.4042C31.0987 36.898 31.2453 40.3918 31.4041 43.8856C31.3308 43.8856 31.2819 43.8856 31.2331 43.8856ZM29.5595 30.9488C29.5106 30.9244 29.4495 30.9 29.4007 30.8755C29.022 31.2909 28.6066 31.6696 28.2768 32.1216C27.8248 32.7324 27.2873 32.9889 26.5299 32.9523C23.3538 32.8179 20.1898 32.6713 17.0137 32.6224C15.2301 32.598 13.4344 32.7446 11.6508 32.8179C11.2111 32.8301 11.0034 33.05 10.979 33.4898C10.9545 33.9417 10.9057 34.3937 10.8568 34.8457C10.3315 39.9154 10.0628 45.0094 9.9284 50.1035C9.91618 50.4578 9.95283 50.8242 10.0139 51.1663C10.1239 51.8137 10.4903 52.2657 11.1622 52.4001C11.5776 52.4734 11.9929 52.5589 12.4205 52.5711C17.1236 52.7421 21.8268 52.9132 26.5299 53.0353C27.495 53.0598 28.4723 52.8887 29.4495 52.8154C29.8527 52.7788 30.0725 52.5833 30.0725 52.1558C30.0848 51.7038 30.1458 51.2396 30.1336 50.7876C30.0725 45.5347 30.0237 40.2696 29.9137 35.0168C29.8771 33.6486 29.6816 32.3048 29.5595 30.9488Z" fill="#1D1929"/>
<path d="M20.3731 18.795C18.2597 18.795 16.1463 18.795 14.0208 18.795C13.8864 18.795 13.752 18.8072 13.6298 18.7706C13.5443 18.7461 13.4588 18.6362 13.4344 18.5507C13.4222 18.514 13.5443 18.4041 13.6176 18.3797C13.7031 18.343 13.8131 18.3552 13.9108 18.3552C18.1742 18.3186 22.4376 18.2819 26.7009 18.2453C26.8475 18.2453 27.0063 18.2086 27.1407 18.2697C27.2629 18.3308 27.4339 18.4652 27.4339 18.5751C27.4339 18.6851 27.2751 18.8194 27.1529 18.8927C27.0674 18.9416 26.933 18.9172 26.8231 18.9172C24.6731 18.9172 22.5231 18.9172 20.3731 18.9172C20.3731 18.8805 20.3731 18.8316 20.3731 18.795Z" fill="#1D1929"/>
<path d="M20.3731 21.9955C18.2597 21.9955 16.1463 21.9955 14.0208 21.9955C13.8864 21.9955 13.752 22.0077 13.6298 21.9711C13.5443 21.9467 13.4588 21.8367 13.4222 21.7512C13.41 21.7146 13.5321 21.6046 13.6054 21.5802C13.7154 21.5435 13.8253 21.5558 13.9475 21.5558C18.2108 21.5191 22.4742 21.4702 26.7376 21.4336C26.7742 21.4336 26.7987 21.4336 26.8353 21.4336C27.0919 21.4458 27.4217 21.3969 27.4339 21.7634C27.4461 22.1421 27.1163 22.1055 26.8598 22.1055C25.0151 22.1177 23.1827 22.1177 21.3381 22.1299C21.0083 22.1299 20.6907 22.1299 20.3609 22.1299C20.3731 22.0933 20.3731 22.0444 20.3731 21.9955Z" fill="#1D1929"/>
<path d="M20.4464 15.0335C22.5842 15.0335 24.7097 15.0335 26.8475 15.0335C26.9575 15.0335 27.0919 15.009 27.1896 15.0579C27.2995 15.119 27.4339 15.2533 27.4461 15.3511C27.4461 15.461 27.324 15.6076 27.214 15.6687C27.0919 15.7298 26.9331 15.7175 26.7865 15.7175C22.5475 15.6809 18.3208 15.6443 14.0818 15.5954C13.862 15.5954 13.6421 15.4366 13.4222 15.3633C13.6421 15.29 13.8742 15.1556 14.0941 15.1556C16.2074 15.1434 18.3208 15.1434 20.4464 15.1434C20.4464 15.0945 20.4464 15.0701 20.4464 15.0335Z" fill="#1D1929"/>
<path d="M20.4219 11.8062C22.5597 11.8062 24.6853 11.8062 26.8231 11.8062C26.9331 11.8062 27.0674 11.7695 27.1652 11.8184C27.2751 11.8795 27.4339 12.0138 27.4339 12.0993C27.4217 12.2215 27.2995 12.3803 27.1896 12.4536C27.0919 12.5147 26.9331 12.478 26.8109 12.478C22.5475 12.4414 18.2719 12.4047 14.0085 12.3681C13.9475 12.3681 13.8742 12.3803 13.8131 12.3559C13.6787 12.2948 13.5566 12.2093 13.4222 12.136C13.5566 12.0505 13.6909 11.9161 13.8375 11.9039C15.1691 11.855 16.5128 11.8306 17.8444 11.8184C18.7117 11.8062 19.5668 11.8184 20.4342 11.8184C20.4219 11.8306 20.4219 11.8184 20.4219 11.8062Z" fill="#1D1929"/>
<path d="M20.4219 9.16942C18.2597 9.16942 16.0853 9.16942 13.923 9.16942C13.8375 9.16942 13.7398 9.19385 13.6787 9.1572C13.581 9.09612 13.5077 9.01061 13.41 8.9251C13.4833 8.8518 13.5566 8.76629 13.6543 8.71742C13.7398 8.68078 13.8497 8.69299 13.9475 8.69299C18.2353 8.65635 22.5109 8.6197 26.7987 8.58305C26.8109 8.58305 26.8353 8.58305 26.8476 8.58305C27.1163 8.58305 27.4339 8.5464 27.4461 8.91288C27.4583 9.27936 27.1407 9.26714 26.872 9.26714C25.5404 9.26714 24.1967 9.27936 22.8651 9.27936C22.0467 9.27936 21.2404 9.27936 20.4219 9.27936C20.4219 9.25493 20.4219 9.20606 20.4219 9.16942Z" fill="#1D1929"/>
<path d="M41.6655 18.0869C41.6655 15.1306 41.6655 12.1621 41.6655 9.20585C41.6655 9.04704 41.6655 8.87601 41.69 8.71721C41.751 8.24078 42.142 7.88652 42.7039 8.15527C44.3286 8.90045 45.819 9.85329 47.1994 10.9527C48.14 11.6979 49.044 12.5042 49.9113 13.3226C50.2289 13.628 50.4855 14.0312 50.6931 14.4343C50.9863 14.9962 50.9008 15.4849 50.4 15.8758C48.3599 17.4883 46.2954 19.0641 44.2309 20.6522C43.9988 20.8232 43.73 20.9454 43.4491 21.0553C42.5939 21.373 42.0076 21.0187 41.8488 20.1269C41.7877 19.7971 41.7755 19.4428 41.7633 19.113C41.751 18.771 41.7633 18.4289 41.7633 18.0869C41.7266 18.0869 41.7022 18.0869 41.6655 18.0869ZM42.8993 9.60897C42.8383 9.65784 42.7772 9.69448 42.7283 9.74335C42.6062 13.2005 42.5695 16.6576 42.9604 20.2735C43.5468 19.9193 44.0232 19.6994 44.4263 19.3818C46.0877 18.0991 47.7247 16.7798 49.3616 15.4849C49.9846 14.9962 50.0213 14.8863 49.4593 14.3488C48.6042 13.5303 47.7247 12.7118 46.7718 12.0277C45.5258 11.1482 44.1942 10.403 42.8993 9.60897Z" fill="#1D1929"/>
<path d="M46.3564 41.9939C46.3564 43.3376 46.3687 45.0357 46.3442 46.7215C46.332 47.1368 46.2343 47.5644 46.0999 47.9553C45.8556 48.6638 45.6235 48.7127 45.0493 48.2607C44.0598 47.4911 43.0703 46.7215 42.1053 45.9152C41.8243 45.6831 41.5556 45.6342 41.2135 45.6587C40.6027 45.7075 39.9797 45.7197 39.3567 45.7075C38.5627 45.6831 38.3183 45.4266 38.3061 44.6325C38.2817 43.5209 38.2695 42.4214 38.2695 41.3098C38.2695 40.5035 38.4894 40.2348 39.2956 40.1004C39.7476 40.0271 40.1996 39.9905 40.6516 39.966C41.1524 39.9416 41.5311 39.7095 41.8732 39.3552C42.9726 38.2191 44.0965 37.1075 45.2204 36.008C45.3792 35.8614 45.6724 35.7149 45.8434 35.7759C45.99 35.8248 46.1121 36.1546 46.1243 36.3623C46.2221 38.1214 46.2709 39.8805 46.3564 41.9939ZM45.2937 47.32C45.3547 47.3078 45.4036 47.2834 45.4647 47.2712C45.5746 43.8507 45.367 40.4424 45.2937 36.9487C45.1104 37.0953 45.0127 37.1441 44.9394 37.2296C44.0354 38.2191 43.1192 39.1842 42.2519 40.1981C42.0931 40.3814 41.9953 40.699 42.0076 40.9555C42.032 42.1282 42.0931 43.301 42.1542 44.4615C42.1664 44.657 42.2641 44.9013 42.3985 45.0112C43.3513 45.8053 44.3286 46.5504 45.2937 47.32ZM41.1769 44.9501C41.1769 43.4476 41.1769 42.0672 41.1769 40.6257C40.4806 40.7234 39.8698 40.7967 39.259 40.9067C39.1612 40.9189 39.0391 41.1143 39.0269 41.2243C39.0146 42.3604 39.0146 43.5087 39.0391 44.6447C39.0391 44.7425 39.2101 44.9257 39.3078 44.9379C39.9431 44.9624 40.5783 44.9501 41.1769 44.9501Z" fill="#1D1929"/>
<path d="M51.7925 41.8831C51.7803 40.0996 51.4138 38.4138 50.2655 36.9723C50.2167 36.9112 50.1678 36.8379 50.1312 36.7646C50.0456 36.5447 49.9723 36.3371 49.899 36.1172C50.1434 36.1905 50.4488 36.1905 50.6442 36.3249C51.5604 37.009 52.0491 37.9984 52.3178 39.0612C53.1119 42.2252 52.7698 45.2547 51.084 48.0888C51.0229 48.1866 50.9741 48.3332 50.8885 48.3576C50.7053 48.4187 50.461 48.5042 50.3266 48.4187C50.2044 48.3454 50.1189 48.04 50.18 47.8934C50.4366 47.2582 50.7664 46.6596 51.0229 46.0243C51.536 44.7295 51.7681 43.3368 51.7925 41.8831Z" fill="#1D1929"/>
<path d="M50.9496 42.518C50.8519 44.4359 50.4243 46.0973 49.276 47.5021C49.0928 47.7342 48.8851 47.9419 48.5797 47.7098C48.2988 47.4899 48.4454 47.2456 48.5919 47.0257C49.3127 45.8774 49.8868 44.668 49.9846 43.2754C50.0945 41.785 49.7891 40.4046 49.0684 39.1097C48.824 38.67 48.5309 38.2546 48.2988 37.8026C48.2255 37.656 48.2743 37.4484 48.2621 37.2773C48.4331 37.314 48.653 37.3018 48.7752 37.3995C49.8746 38.3401 50.3999 39.6106 50.7297 40.9666C50.8641 41.5163 50.9008 42.0904 50.9496 42.518Z" fill="#1D1929"/>
<path d="M48.9584 42.0299C48.8851 43.5569 48.6164 44.6441 48.0422 45.6336C47.9934 45.7191 47.9689 45.8535 47.8956 45.8779C47.7124 45.9512 47.5047 46.0367 47.3337 45.9879C47.2482 45.9634 47.1627 45.658 47.1993 45.5114C47.3703 44.9251 47.6269 44.3509 47.7979 43.7646C48.2621 42.1765 48.0544 40.6495 47.3581 39.1714C47.2604 38.9515 47.1871 38.5117 47.2848 38.4506C47.6391 38.2307 47.8346 38.5972 48.0056 38.8171C48.8363 39.8799 48.9462 41.1381 48.9584 42.0299Z" fill="#1D1929"/>
<path d="M19.9577 50.4202C18.223 50.3591 16.4028 50.298 14.5827 50.2247C13.5687 50.1759 13.3244 49.8949 13.2267 48.8932C12.8236 44.7886 12.8724 40.6718 12.9213 36.555C12.9213 36.4207 12.9213 36.2985 12.9335 36.1641C12.9824 35.5411 13.1778 35.2968 13.8008 35.2724C14.9736 35.2113 16.1463 35.1258 17.3068 35.1746C20.4097 35.2968 23.5125 35.4923 26.6154 35.6633C27.3361 35.6999 27.666 36.0298 27.6782 36.7505C27.7637 40.3909 27.8126 44.0434 27.8737 47.6838C27.8737 48.0014 27.8126 48.3312 27.7637 48.6489C27.6049 49.6384 27.1407 50.0781 26.139 50.127C24.1111 50.2369 22.0711 50.3224 19.9577 50.4202ZM26.9697 45.7781C26.9819 45.6804 27.0063 45.6437 27.0063 45.5949C26.933 42.7119 26.8597 39.8411 26.7986 36.9582C26.7864 36.6528 26.6521 36.5428 26.3589 36.5184C22.3398 36.1641 18.3085 35.9076 14.2651 36.0542C13.8864 36.0664 13.752 36.1886 13.752 36.555C13.752 37.5445 13.8008 38.5462 13.7031 39.5357C13.5932 40.6596 13.9352 41.3926 14.8758 42.0889C16.2807 43.1272 17.5389 44.3733 18.9682 45.6315C19.0781 45.4605 19.1637 45.2772 19.3103 45.1429C20.0676 44.4466 20.8128 43.7503 21.6069 43.1028C22.4009 42.4431 22.5597 42.4798 23.3904 43.0906C24.5509 43.9701 25.7359 44.8619 26.9697 45.7781ZM13.7642 42.0034C13.752 42.1255 13.7275 42.1744 13.7398 42.211C13.8619 44.4221 13.9963 46.6332 14.1185 48.8321C14.1429 49.1864 14.3017 49.3085 14.6315 49.333C18.4551 49.6384 22.2787 49.4673 26.0901 49.223C26.6398 49.1864 26.8475 48.9665 26.8964 48.429C26.9452 48.0258 26.9941 47.6105 26.9697 47.2074C26.9575 47.0119 26.8475 46.7798 26.7009 46.6577C25.8458 45.9613 24.9662 45.2895 24.0867 44.6176C23.5614 44.2145 23.0361 43.8113 22.4986 43.4204C22.3398 43.5426 22.2177 43.6281 22.1199 43.7258C21.2526 44.5321 20.373 45.3383 19.5057 46.1568C19.0049 46.6332 18.7727 46.6577 18.2475 46.2179C17.9176 45.9491 17.6122 45.6559 17.3068 45.3628C16.1585 44.2755 14.9858 43.1639 13.7642 42.0034Z" fill="#1D1929"/>
<path d="M20.3853 39.5968C20.3853 40.7695 19.5668 41.6247 18.4674 41.6124C17.368 41.6002 16.5739 40.8917 16.5617 39.9266C16.5495 38.7173 17.5268 37.6178 18.614 37.6056C19.6157 37.5934 20.3731 38.4485 20.3853 39.5968ZM19.6646 39.7556C19.6646 38.9982 19.1026 38.3019 18.4918 38.3141C17.8932 38.3141 17.2336 39.0715 17.2214 39.7678C17.2091 40.4275 17.71 40.9406 18.3819 40.9406C19.1271 40.9528 19.6646 40.4397 19.6646 39.7556Z" fill="#1D1929"/>
</g>
<defs>
<clipPath id="clip0_612_35026">
<rect width="47.3736" height="50" fill="white" transform="translate(9 4)"/>
</clipPath>
</defs>
</svg>
