<svg width="54" height="57" viewBox="0 0 54 57" fill="none" xmlns="http://www.w3.org/2000/svg">
<path d="M4.4964 50.293C-5.31517 40.2714 0.522093 0 26.0446 0C49.5799 0 53.1403 25.9782 52.8919 31.1533C52.5193 38.9365 46.7648 52.2645 33.5171 55.7146C20.2487 59.1852 9.13309 55.0369 4.4964 50.293Z" fill="#F9F9F9"/>
<path d="M12.0907 9.59597C5.8144 14.0293 -0.307131 27.4666 9.63176 46.059C19.5706 64.6514 35.012 54.7022 39.9127 51.1109C44.8134 47.5024 55.6292 31.6594 43.0938 17.1051C30.5413 2.53362 15.2718 7.34495 12.0907 9.59597Z" fill="#F9F9F9"/>
<g clip-path="url(#clip0_612_35025)">
<path d="M0 21.7848C0.0911843 21.3419 0.14329 20.899 0.286579 20.4821C0.442895 20.0523 0.690395 19.6745 0.898817 19.2577C0.963948 19.1274 1.01605 18.9711 1.00303 18.8408C0.833685 17.2256 0.651316 15.6233 0.481974 14.0211C0.455921 13.7736 0.429869 13.5391 0.429869 13.2916C0.429869 12.3798 0.820659 11.7545 1.70645 11.5852C2.93092 11.3507 4.16842 11.1423 5.41895 11.0902C11.867 10.8166 18.328 10.7775 24.7891 11.012C26.6128 11.0771 28.4365 11.1683 30.2471 11.2465C30.5858 11.2595 30.9375 11.2204 31.2892 11.1813C32.5007 11.025 32.9827 10.5821 33.2562 9.38371C33.6991 7.41673 34.2853 6.94778 36.2653 6.99989C38.4407 7.05199 40.6031 7.1041 42.7654 7.19528C43.3646 7.22133 43.9769 7.33857 44.55 7.52094C45.501 7.82055 46.0611 8.48489 46.2695 9.48792C46.504 10.6733 46.6212 10.7515 47.8197 10.9469C48.5752 11.0771 49.3307 11.1944 50.0602 11.3767C51.1674 11.6503 51.8318 12.3928 52.0011 13.5131C52.1835 14.7115 52.2877 15.9229 52.431 17.1344C52.444 17.2516 52.4179 17.4079 52.4831 17.4731C53.1604 18.1504 53.1214 19.0232 53.1474 19.8699C53.2256 22.1104 53.2516 24.351 53.3037 26.5915C53.3037 26.826 53.3428 27.0735 53.3689 27.3079C53.3689 32.9353 53.3689 38.5627 53.3689 44.1901C53.3298 45.1931 53.3168 46.1961 53.2516 47.1991C53.1083 49.3224 51.962 50.5469 49.8257 50.6511C47.2725 50.7814 44.7194 50.8335 42.1792 50.8335C32.162 50.8595 22.1448 50.8856 12.1275 50.8335C9.02725 50.8205 5.91395 50.599 2.81369 50.4297C1.26355 50.3515 0.573158 49.622 0.455921 48.0719C0.429869 47.6681 0.429869 47.2773 0.429869 46.8735C0.312632 39.5136 0.208421 32.1537 0.0911843 24.7939C0.0911843 24.5594 0.039079 24.3119 0.0130263 24.0774C0 23.3089 0 22.5533 0 21.7848ZM31.5498 19.3879C30.651 19.44 29.7261 19.4921 28.7882 19.5442C26.1699 19.6745 23.5516 19.8569 20.9333 19.909C19.0575 19.9481 18.2629 19.2837 17.7419 17.4991C17.4813 16.6263 17.3511 16.47 16.4262 16.5221C13.2347 16.6654 10.0433 16.8348 6.86488 17.0171C5.94001 17.0692 5.73158 17.3037 5.48408 18.2156C5.45803 18.3328 5.43198 18.45 5.40593 18.5673C5.11935 19.7266 4.52014 20.2086 3.33474 20.2086C3.02211 20.2086 2.70948 20.1695 2.39684 20.1304C1.49803 20.0392 1.21145 20.2346 1.17237 21.1465C1.10724 22.2537 1.05513 23.374 1.09421 24.4812C1.27658 29.809 1.51105 35.1368 1.69342 40.4645C1.77158 42.8744 1.75855 45.2973 1.82369 47.7072C1.84974 48.8014 2.12329 49.0358 3.2175 49.088C6.70856 49.2443 10.1866 49.4918 13.6776 49.4918C25.1408 49.4918 36.604 49.3876 48.0541 49.3224C48.7185 49.3224 49.3698 49.2703 50.0211 49.1922C50.8548 49.088 51.441 48.632 51.6624 47.8114C51.7536 47.4597 51.7927 47.0949 51.8057 46.7302C51.8448 43.7081 51.9099 40.686 51.8969 37.6639C51.8708 31.9193 51.7927 26.1746 51.7406 20.417C51.7406 19.896 51.7406 19.3749 51.7276 18.8538C51.7276 18.5412 51.5322 18.3719 51.2325 18.3849C50.2556 18.437 49.2656 18.5021 48.1583 18.5673C48.2104 21.9411 48.1974 25.2758 48.3407 28.5975C48.4579 31.3721 48.7575 34.1337 48.966 36.9083C49.0702 38.3543 48.6143 38.8493 47.1944 38.9144C47.1293 38.9144 47.0511 38.9144 46.986 38.9144C44.4849 38.8753 41.9839 38.8753 39.4828 38.7581C37.3725 38.6669 35.2623 38.4715 33.152 38.2761C32.175 38.1849 31.8494 37.742 31.8233 36.752C31.7973 35.9053 31.7842 35.0456 31.7712 34.1989C31.7061 30.2519 31.641 26.3179 31.5758 22.371C31.5367 21.394 31.5498 20.43 31.5498 19.3879ZM43.2083 18.7627C43.1562 19.4531 43.1302 20.0913 43.065 20.7166C43.026 21.1465 42.7524 21.381 42.3356 21.3679C40.9939 21.3419 39.6652 21.3158 38.3365 21.2246C37.4637 21.1725 37.2814 20.8599 37.3595 19.9871C37.3856 19.6875 37.3595 19.3879 37.3595 19.0623C35.6661 19.1535 34.0508 19.2446 32.4616 19.3358C32.4356 19.44 32.4225 19.4921 32.4225 19.5442C32.6179 25.2628 32.8263 30.9944 33.0087 36.7129C33.0217 37.0256 33.1781 37.0777 33.4386 37.1037C34.4025 37.1949 35.3665 37.3122 36.3304 37.4033C39.8736 37.755 43.4298 37.755 46.999 37.716C47.7285 37.7029 47.8066 37.6378 47.7806 36.9083C47.7806 36.8041 47.7675 36.6999 47.7545 36.5957C47.1814 30.7729 46.9339 24.9241 47.1944 19.0753C47.2074 18.919 47.1944 18.7757 47.1944 18.5673C45.8396 18.6454 44.524 18.6975 43.2083 18.7627ZM51.1804 17.1213C51.1283 16.2877 51.1023 15.5191 51.0502 14.7636C51.0241 14.4119 50.985 14.0732 50.9329 13.7345C50.8287 13.0311 50.4379 12.6142 49.7345 12.497C48.979 12.3798 48.2365 12.2365 47.481 12.0932C45.9178 11.8066 45.514 11.4288 45.2404 9.87871C45.1102 9.14923 44.6803 8.73239 44.0029 8.57607C43.521 8.45884 43.0129 8.38068 42.5179 8.38068C40.59 8.3416 38.6621 8.32857 36.7342 8.32857C35.119 8.3416 34.9496 7.93778 34.4156 10.0741C34.155 11.1292 33.4907 11.8196 32.4616 12.1062C31.9666 12.2495 31.4325 12.3407 30.9245 12.3277C27.3292 12.2234 23.747 12.002 20.1517 11.9759C15.3971 11.9499 10.6425 12.0411 5.8879 12.1453C4.7025 12.1713 3.51711 12.4579 2.33171 12.6273C1.81066 12.7054 1.62829 13.0181 1.66737 13.5521C1.75855 15.1804 1.81066 16.8087 1.87579 18.45C1.88882 18.6194 1.90184 18.7757 1.9279 18.9711C2.33171 18.9711 2.69645 18.9711 3.07421 18.9711C3.04816 18.7366 3.02211 18.5282 2.99606 18.3198C2.86579 17.3167 2.7225 16.3267 2.63132 15.3237C2.56619 14.5682 2.83974 14.2425 3.58224 14.1904C4.67645 14.1123 5.77066 14.0862 6.85185 14.0602C14.5895 13.8778 22.3402 13.7084 30.0778 13.5391C31.0938 13.5131 31.2892 13.6954 31.5237 14.6984C31.5498 14.8027 31.5888 14.8938 31.6149 14.985C33.8424 14.9199 36.0438 14.8548 38.2714 14.7896C38.102 14.3337 37.9327 13.9559 37.8415 13.5521C37.7503 13.1744 37.9066 12.8748 38.3365 12.8617C39.3786 12.8227 40.4207 12.7836 41.4628 12.8096C42.1271 12.8227 42.3356 13.1744 42.2053 13.8387C42.1532 14.1123 42.075 14.3728 42.0099 14.6854C42.2183 14.6854 42.3746 14.6854 42.531 14.6854C44.3025 14.6073 46.0741 14.5161 47.8327 14.4249C48.497 14.3988 48.5622 14.464 48.51 15.1153C48.4449 15.8317 48.3928 16.5612 48.3407 17.3558C49.2916 17.2646 50.2035 17.1995 51.1804 17.1213ZM29.205 18.2807C29.7652 18.2807 30.3383 18.2807 30.9636 18.2807C30.8854 17.0432 30.8203 15.8838 30.7421 14.7245C30.7161 14.3207 30.4035 14.2946 30.0908 14.2946C29.5567 14.3077 29.0096 14.3207 28.4756 14.3337C21.8321 14.3858 15.1757 14.4249 8.53225 14.5031C6.99514 14.5161 5.44501 14.6724 3.9079 14.7506C3.43895 14.7766 3.26961 15.0241 3.32171 15.48C3.38685 16.0011 3.42592 16.5091 3.47803 17.0302C3.54316 17.6815 3.60829 18.3198 3.67342 19.0102C4.36382 18.7757 4.455 18.2025 4.53316 17.6945C4.72856 16.5091 5.49711 15.975 6.59132 15.8317C7.51619 15.7145 8.45409 15.6233 9.39198 15.5712C11.854 15.454 14.3159 15.3367 16.7779 15.2586C17.6767 15.2325 18.3932 15.5842 18.7579 16.4831C18.81 16.6003 19.0445 16.7175 19.1878 16.7175C20.6077 16.6654 22.0275 16.5742 23.4474 16.4961C24.9194 16.4179 26.3913 16.3137 27.8633 16.2746C28.7361 16.2486 28.9706 16.4961 29.0878 17.3428C29.1269 17.6554 29.1659 17.9681 29.205 18.2807ZM31.8233 18.2546C33.6731 18.1635 35.4837 18.0723 37.3204 17.9681C37.3465 16.8999 37.2032 15.7666 38.8445 15.8187C38.6491 15.6363 38.4798 15.5321 38.3235 15.5321C36.1741 15.5582 34.0248 15.5973 31.8754 15.6363C31.8103 15.6363 31.7452 15.6754 31.68 15.6884C31.7321 16.5352 31.7712 17.3558 31.8233 18.2546ZM42.0881 20.2346C42.0881 19.2186 42.1011 18.1374 42.062 17.0692C42.062 16.965 41.7754 16.7957 41.6191 16.7957C40.6421 16.8087 39.6782 16.8478 38.7012 16.8999C38.5579 16.9129 38.3235 17.0953 38.3235 17.1995C38.2974 18.1765 38.3104 19.1665 38.3104 20.2216C39.587 20.2346 40.7724 20.2346 42.0881 20.2346ZM19.0054 17.3819C19.0836 18.1504 19.5395 18.4891 20.1517 18.6454C20.4644 18.7236 20.803 18.7627 21.1287 18.7496C23.0045 18.6715 24.8673 18.5803 26.7431 18.4891C27.2771 18.4631 27.7982 18.437 28.3713 18.411C28.3323 18.1113 28.2802 17.8769 28.2802 17.6424C28.2932 17.1995 28.0717 17.0823 27.6679 17.0953C25.0887 17.1865 22.5095 17.2516 19.9173 17.3298C19.6176 17.3428 19.3311 17.3688 19.0054 17.3819ZM47.7545 15.1934C47.6764 15.1544 47.6373 15.1283 47.6112 15.1283C45.7615 15.2065 43.9118 15.2716 42.062 15.3628C41.9187 15.3758 41.7754 15.5842 41.567 15.7666C42.9348 15.9881 42.9348 15.9881 43.2083 17.6424C44.5891 17.5512 45.9829 17.4731 47.4158 17.3819C47.5331 16.6394 47.6503 15.9099 47.7545 15.1934ZM38.8966 13.6433C39.066 14.6984 39.105 14.7245 40.5249 14.6984C41.085 14.6854 41.1632 14.5942 41.2674 13.6433C40.4728 13.6433 39.6782 13.6433 38.8966 13.6433ZM40.7985 15.5842C40.7594 15.5321 40.7203 15.48 40.6812 15.4149C40.3035 15.4409 39.9257 15.454 39.4046 15.4931C39.7303 16.0011 40.1211 15.8057 40.4207 15.8187C40.551 15.8317 40.6812 15.6754 40.7985 15.5842Z" fill="#1D1929"/>
<path d="M10.2778 19.3874C9.26172 19.3874 8.23265 19.3874 7.21659 19.3874C7.11238 19.3874 6.99514 19.4135 6.90396 19.3744C6.74764 19.3093 6.61738 19.1921 6.47409 19.0878C6.60435 18.9836 6.72159 18.8013 6.86488 18.7752C7.5683 18.6449 8.27172 18.5277 8.97515 18.4756C11.2157 18.3063 13.4692 18.163 15.7098 18.0197C16.0354 17.9936 16.4392 17.9415 16.4523 18.4235C16.4653 18.8924 16.1005 18.9446 15.7228 18.9706C13.9121 19.0748 12.0884 19.1921 10.2778 19.3093C10.2778 19.3353 10.2778 19.3614 10.2778 19.3874Z" fill="#1D1929"/>
<path d="M42.5831 28.4419C43.9508 30.2005 44.511 32.3107 44.8887 34.4731C45.0971 35.6455 44.7324 36.1665 43.5731 36.3098C41.1632 36.6224 38.7533 36.5964 36.3434 36.3489C35.4707 36.2577 35.0929 35.8018 35.3404 34.9551C35.6009 34.0302 35.9917 33.1314 36.4216 32.2586C36.9687 31.1514 37.594 30.0962 38.2062 28.989C37.4507 28.3637 36.9687 27.5691 36.8384 26.5791C36.5909 24.7815 38.2844 22.4628 39.9648 22.2935C42.5831 22.046 44.4067 24.6903 43.3256 27.1653C43.1302 27.6082 42.8436 27.986 42.5831 28.4419ZM38.4928 29.5231C37.7503 31.3598 37.0469 33.0923 36.3434 34.8248C36.1871 35.2286 36.3174 35.3849 36.7342 35.437C38.9617 35.6845 41.2023 35.6715 43.4298 35.4501C43.8336 35.411 44.029 35.2416 43.9638 34.8118C43.7033 33.0532 43.1823 31.3728 42.2574 29.8227C41.2283 31.6203 39.574 31.5943 38.4928 29.5231ZM42.7394 25.7585C42.7394 25.6673 42.7394 25.5891 42.7394 25.498C42.6742 24.4689 41.9969 23.557 41.0329 23.2183C40.082 22.8927 39.1702 23.1402 38.4928 24.013C38.1411 24.4689 37.8284 25.003 37.6591 25.5501C37.3725 26.4619 37.6721 27.2956 38.3104 27.986C38.9227 28.6503 39.7042 28.8066 40.5509 28.5982C41.8015 28.2856 42.7394 27.0481 42.7394 25.7585ZM41.4367 29.3668C40.6421 29.4319 39.8736 29.484 39.1311 29.5361C39.3916 30.0832 39.9648 30.487 40.4988 30.4219C40.9808 30.3698 41.3325 29.953 41.4367 29.3668Z" fill="#1D1929"/>
<path d="M39.3525 10.5159C38.2974 10.5159 37.2423 10.5289 36.1871 10.5029C36.0048 10.5029 35.8224 10.3075 35.64 10.1903C35.8224 10.073 35.9918 9.85158 36.1741 9.85158C38.3365 9.73434 40.4989 9.65618 42.6612 9.55197C42.9608 9.53895 43.1953 9.63013 43.2214 9.95579C43.2344 10.2945 43.0129 10.4378 42.6873 10.4378C41.5801 10.4378 40.4728 10.4378 39.3656 10.4378C39.3525 10.4638 39.3525 10.4899 39.3525 10.5159Z" fill="#1D1929"/>
</g>
<defs>
<clipPath id="clip0_612_35025">
<rect width="53.3558" height="43.8596" fill="white" transform="translate(0 7)"/>
</clipPath>
</defs>
</svg>
