<svg width="54" height="57" viewBox="0 0 54 57" fill="none" xmlns="http://www.w3.org/2000/svg">
<path d="M4.4964 50.293C-5.31517 40.2714 0.522093 0 26.0446 0C49.5799 0 53.1403 25.9782 52.8919 31.1533C52.5193 38.9365 46.7648 52.2645 33.5171 55.7146C20.2487 59.1852 9.13309 55.0369 4.4964 50.293Z" fill="#F9F9F9"/>
<g clip-path="url(#clip0_612_35024)">
<path d="M40.1279 4C40.8115 4.03662 41.4829 4.07324 42.1665 4.09766C43.4727 4.12207 43.9365 4.54932 43.9365 5.86768C43.9609 9.57861 43.9487 13.2896 43.9609 17.0005C43.9609 17.0615 43.9609 17.1226 43.9609 17.3057C44.083 17.1226 44.1685 17.0371 44.2173 16.9272C44.6445 16.0728 45.0596 15.2061 45.4868 14.3516C45.8774 13.5581 46.4146 13.2529 47.2568 13.436C47.5742 13.5093 47.6841 13.3872 47.8184 13.1553C48.2578 12.3984 48.7095 11.6416 49.1978 10.9092C49.7471 10.0913 50.2476 9.9082 51.1509 10.2866C51.6636 10.5063 52.1519 10.8237 52.5791 11.1899C53.2017 11.7393 53.2261 12.02 52.8232 12.7769C52.4082 13.5703 51.9687 14.3516 51.5293 15.1206C51.3828 15.377 51.3462 15.5479 51.5659 15.792C52.0908 16.3901 52.1885 17.0981 51.8711 17.8428C51.749 18.1357 51.6147 18.4409 51.4438 18.7217C49.0879 22.7866 46.7319 26.8516 44.3516 30.9043C44.022 31.4658 43.8877 32.0029 43.9121 32.6743C43.9731 35.2622 43.9854 37.8501 43.8999 40.4258C43.7778 43.8682 43.5459 47.3105 43.3628 50.7529C43.3628 50.8628 43.3506 50.9849 43.3384 51.0947C43.1919 52.6938 42.7524 53.1333 41.1289 53.1943C36.6367 53.3774 32.1567 53.5483 27.6645 53.6948C25.0034 53.7925 22.3301 53.8413 19.6567 53.9268C19.5103 53.9268 19.376 53.9634 19.2295 53.9878C17.5327 53.9878 15.8481 53.9878 14.1514 53.9878C13.3823 53.9268 12.6011 53.8535 11.832 53.7925C10.5869 53.6948 10.2329 53.3774 10.0742 52.1445C10.062 52.0469 10.062 51.9492 10.0498 51.8516C9.84228 48.5557 9.62256 45.2598 9.43945 41.9639C9.09766 35.7871 8.91455 29.6104 9.03662 23.4214C9.14648 17.6597 9.37842 11.9102 9.54932 6.14844C9.59814 4.67139 9.59814 4.65918 11.0996 4.61035C16.8369 4.42725 22.5742 4.24414 28.3237 4.06104C28.519 4.04883 28.7144 4.02441 28.8975 4C32.6328 4 36.3804 4 40.1279 4ZM42.3374 45.6016C42.4229 41.7808 42.5205 37.9111 42.606 34.0415C42.5571 34.0293 42.5205 34.0171 42.4717 34.0171C41.8491 35.0425 41.2388 36.0679 40.604 37.0811C39.7129 38.4971 38.8462 39.9375 37.8818 41.3047C36.6001 43.1113 34.8667 44.4907 33.0967 45.8091C32.23 46.4561 31.229 46.9199 30.2646 47.4204C29.7275 47.7012 29.3491 47.4814 29.2393 46.8833C29.1904 46.6147 29.1416 46.334 29.166 46.0654C29.3735 44.5029 29.6177 42.9404 29.813 41.3779C29.9473 40.2671 30.228 39.2173 30.814 38.2529C31.7905 36.6782 32.7183 35.0791 33.7192 33.5166C36.7344 28.8047 39.7739 24.105 42.7891 19.3931C42.9233 19.1733 43.021 18.8804 43.0088 18.6362C42.9111 16.4634 42.7891 14.2783 42.667 12.1055C42.6548 11.9346 42.6426 11.7637 42.6304 11.666C31.8882 11.8125 21.1704 11.9834 10.416 12.1543C10.4038 12.3862 10.3794 12.6426 10.3672 12.8989C10.2939 15.5845 10.1841 18.27 10.1475 20.9556C10.0742 26.9126 10.0864 32.8696 10.4282 38.8145C10.6846 43.27 11.0142 47.7134 11.2949 52.1567C11.3193 52.4619 11.4048 52.6328 11.7466 52.645C12.7354 52.6938 13.7241 52.8037 14.7129 52.8159C21.915 52.9014 29.0928 52.4131 36.2705 52.1079C36.5635 52.0957 36.8687 52.0591 37.1616 52.0347C37.1616 51.9248 37.1738 51.876 37.1616 51.8271C36.9175 50.2646 36.6733 48.7144 36.4292 47.1519C36.3315 46.5171 36.5513 46.1997 37.186 46.0776C37.3813 46.041 37.5645 46.0044 37.7598 45.9922C39.249 45.8579 40.7383 45.7358 42.3374 45.6016ZM42.606 5.41602C31.9614 4.85449 21.4145 5.44043 10.8066 5.9043C10.6724 7.72314 10.5503 9.48096 10.4282 11.2998C21.207 11.0068 31.9248 10.7017 42.606 10.4087C42.606 8.73633 42.606 7.08838 42.606 5.41602ZM35.8555 41.7686C36.2827 41.2314 36.6855 40.7554 37.0518 40.2671C37.5278 39.6079 38.0039 38.9487 38.4434 38.2651C42.6914 31.5635 46.7075 24.7275 50.5771 17.7939C50.98 17.0737 50.9189 16.6221 50.1865 16.1826C49.2832 15.6455 48.3311 15.1816 47.3667 14.7666C46.6953 14.4736 46.6465 14.5591 46.2925 15.1816C44.7056 17.9404 43.1675 20.7358 41.5195 23.458C38.7974 27.9502 36.002 32.3936 33.2432 36.8613C32.7183 37.7158 32.2422 38.6069 31.7173 39.5225C33.3286 39.8765 34.6714 40.6089 35.8555 41.7686ZM34.9521 42.7085C33.7925 41.5244 32.4375 40.8652 30.7529 40.7065C30.6553 42.4766 30.5698 44.21 30.4722 46.041C32.23 45.1499 33.5605 43.917 34.9521 42.7085ZM38.1748 51.3267C39.249 49.6909 40.2744 48.1528 41.312 46.5903C40.0059 46.749 38.7241 46.8955 37.4058 47.0542C37.6621 48.4702 37.9062 49.8374 38.1748 51.3267ZM39.1392 51.8394C39.9692 51.8394 40.7139 51.8394 41.4585 51.8394C41.7881 51.8394 41.9468 51.6685 41.9712 51.3267C42.0322 50.0815 42.1177 48.8242 42.1909 47.5791C42.1909 47.4937 42.1665 47.4204 42.1543 47.335C42.1055 47.3228 42.0688 47.2983 42.02 47.2861C41.0557 48.7998 40.1035 50.3135 39.1392 51.8394ZM50.4307 14.7422C50.4673 14.7056 50.5039 14.6934 50.5161 14.6689C50.8945 14.0464 51.2729 13.4238 51.6514 12.7891C52.1885 11.8857 52.1274 11.7026 51.1387 11.312C51.0288 11.2754 50.9189 11.2632 50.8213 11.2021C50.5039 11.0313 50.3696 11.1899 50.2109 11.4463C49.8813 11.9712 49.5396 12.4717 49.1855 12.9844C49.0024 13.2529 48.7949 13.5215 48.5874 13.79C49.2222 14.1196 49.8203 14.4248 50.4307 14.7422Z" fill="#1D1929"/>
<path d="M27.4326 24.4463C24.8691 24.4463 22.2935 24.4463 19.73 24.4463C19.6445 24.4463 19.5591 24.4707 19.4858 24.4341C19.3394 24.373 19.2051 24.2876 19.0708 24.2144C19.2173 24.1411 19.3516 24.019 19.498 24.019C24.7959 23.9458 30.0937 23.897 35.3916 23.8359C35.6846 23.8359 35.9897 23.8604 35.9775 24.2388C35.9775 24.6172 35.6602 24.6172 35.3672 24.6172C32.7183 24.6172 30.0693 24.6172 27.4204 24.6172C27.4326 24.5562 27.4326 24.4951 27.4326 24.4463Z" fill="#1D1929"/>
<path d="M27.3594 18.0623C24.7349 18.0623 22.1226 18.0623 19.498 18.0623C19.4126 18.0623 19.3271 18.0867 19.2539 18.05C19.144 18.0012 19.0586 17.9158 18.9609 17.8425C19.0464 17.7693 19.1318 17.6594 19.2295 17.6106C19.3271 17.574 19.4492 17.5862 19.5713 17.5862C24.7837 17.5374 29.9839 17.4885 35.1963 17.4397C35.3306 17.4397 35.4771 17.4153 35.5747 17.4641C35.6968 17.5374 35.8677 17.6838 35.8677 17.7815C35.8555 17.9158 35.7212 18.0989 35.5991 18.1721C35.4526 18.2454 35.2451 18.2209 35.0742 18.2209C32.4985 18.2209 29.9351 18.2209 27.3594 18.2209C27.3594 18.1721 27.3594 18.1111 27.3594 18.0623Z" fill="#1D1929"/>
<path d="M15.9092 22.993C16.4463 23.4203 16.8369 23.8963 16.605 24.5921C16.3608 25.3368 15.7993 25.7152 15.0669 25.8495C14.3589 25.9715 13.6631 25.4833 13.5776 24.702C13.4678 23.7865 13.4312 22.8588 13.4189 21.931C13.4067 21.3329 13.7363 21.0033 14.2856 20.8446C14.9814 20.6493 15.7749 20.869 16.1045 21.3451C16.4097 21.7967 16.3853 22.3094 16.0068 22.8343C15.9824 22.8832 15.958 22.9198 15.9092 22.993ZM14.3345 23.6888C14.3833 24.0306 14.3833 24.287 14.4565 24.5067C14.5054 24.641 14.6763 24.8485 14.7617 24.8363C15.0669 24.7997 15.4087 24.7386 15.6528 24.5677C15.9946 24.3114 15.8604 23.8597 15.4453 23.7621C15.1035 23.701 14.7495 23.7132 14.3345 23.6888ZM14.0171 21.5404C14.1025 22.0531 14.1636 22.4437 14.2368 22.9076C14.5786 22.7489 14.896 22.6512 15.1523 22.4681C15.2988 22.3705 15.4453 22.1263 15.4209 21.9676C15.3965 21.8089 15.1768 21.6014 15.0181 21.5648C14.7251 21.4916 14.3955 21.5404 14.0171 21.5404Z" fill="#1D1929"/>
<path d="M15.9092 38.009C16.4341 38.4118 16.8125 38.8757 16.6172 39.5593C16.4097 40.3039 15.8604 40.7067 15.1157 40.8532C14.3711 40.9875 13.6753 40.5603 13.5776 39.7912C13.4556 38.8269 13.4189 37.8503 13.4067 36.8737C13.4067 36.3366 13.7729 35.9826 14.3101 35.8606C15.0425 35.6897 15.7993 35.9216 16.1167 36.4099C16.4097 36.8493 16.3608 37.362 16.0068 37.8503C15.9824 37.8869 15.958 37.9357 15.9092 38.009ZM14.3345 38.6926C14.3833 39.0466 14.3955 39.2907 14.4443 39.5227C14.4687 39.6325 14.5298 39.779 14.6152 39.8278C14.9082 39.9987 15.5186 39.8278 15.7139 39.5349C15.9336 39.2053 15.8359 38.8635 15.4453 38.7902C15.1157 38.717 14.7617 38.7292 14.3345 38.6926ZM14.2368 37.9235C14.5908 37.7648 14.896 37.6672 15.1279 37.4963C15.2866 37.3864 15.4453 37.1179 15.4087 36.9592C15.3721 36.7883 15.1279 36.593 14.9448 36.5564C14.6641 36.4953 14.3589 36.5686 14.0171 36.593C14.1025 37.0568 14.1636 37.4475 14.2368 37.9235Z" fill="#1D1929"/>
<path d="M13.0405 18.7936C13.2969 17.4264 13.5288 16.1324 13.7974 14.8385C13.9072 14.3136 14.3711 14.1549 14.7495 14.5455C15.2012 15.0216 15.6284 15.5465 15.9458 16.1202C16.2754 16.7062 16.4585 17.3776 16.7148 18.0123C16.8247 18.2809 16.8369 18.525 16.5317 18.6715C16.2021 18.818 15.9702 18.6837 15.8115 18.3785C15.7749 18.3053 15.7383 18.232 15.7261 18.1588C15.665 17.8292 15.4697 17.8292 15.1646 17.817C14.4077 17.7926 13.9072 18.0001 13.7852 18.8302C13.7607 18.9645 13.5044 19.0865 13.3335 19.1354C13.2603 19.1354 13.126 18.9034 13.0405 18.7936ZM14.3467 17.0602C14.6641 16.9747 14.9204 16.9137 15.2378 16.8404C15.0425 16.4986 14.8716 16.2179 14.6519 15.8395C14.542 16.3033 14.4565 16.6451 14.3467 17.0602Z" fill="#1D1929"/>
<path d="M16.1289 32.3454C16.0435 32.2355 15.8115 32.0646 15.7383 31.8449C15.6284 31.4909 15.4331 31.381 15.1035 31.4543C15.0669 31.4665 15.0425 31.4665 15.0059 31.4665C14.3223 31.3932 13.895 31.6374 13.8218 32.3698C13.8096 32.4552 13.7607 32.5773 13.6997 32.6261C13.5776 32.6994 13.4067 32.7848 13.2847 32.7604C13.1992 32.7482 13.0894 32.5285 13.1016 32.4186C13.3213 31.0758 13.5532 29.7331 13.8218 28.4025C13.9072 27.9753 14.3589 27.841 14.7007 28.1462C15.0913 28.5002 15.4819 28.903 15.7261 29.3546C16.1289 30.1115 16.4219 30.9294 16.727 31.7228C16.8735 32.089 16.6782 32.3332 16.1289 32.3454ZM15.25 30.4655C15.0547 30.1237 14.896 29.8551 14.6641 29.4645C14.542 29.9284 14.4565 30.2702 14.3589 30.6852C14.6763 30.612 14.9082 30.5509 15.25 30.4655Z" fill="#1D1929"/>
<path d="M18.9365 31.3184C19.0952 31.2817 19.2417 31.2085 19.4004 31.2085C23.8071 31.1597 28.2139 31.0986 32.6328 31.0742C32.8037 31.0742 32.9746 31.2695 33.1455 31.3794C32.9868 31.4893 32.8159 31.6968 32.6572 31.6968C28.2261 31.6602 23.8071 31.6113 19.376 31.5503C19.2295 31.5503 19.0952 31.4893 18.9487 31.4526C18.9487 31.416 18.9365 31.3672 18.9365 31.3184Z" fill="#1D1929"/>
<path d="M24.1367 39.4752C22.6108 39.4752 21.085 39.4752 19.5469 39.463C19.3882 39.463 19.2295 39.3409 19.0586 39.2799C19.2173 39.2066 19.3638 39.0724 19.5225 39.0724C22.562 39.0113 25.6016 38.9625 28.6411 38.9259C28.8608 38.9259 29.166 38.8282 29.2148 39.1944C29.2637 39.5362 29.0928 39.6461 28.7632 39.6461C27.2129 39.6339 25.6748 39.6461 24.1245 39.6461C24.1367 39.5851 24.1367 39.5362 24.1367 39.4752Z" fill="#1D1929"/>
<path d="M24.1245 30.0759C22.562 30.0759 20.9995 30.0881 19.437 30.0637C19.2783 30.0637 19.1318 29.9172 18.9731 29.844C19.1196 29.783 19.2661 29.6609 19.4248 29.6609C22.5498 29.6365 25.6748 29.6243 28.7998 29.5999C28.8975 29.5999 29.0073 29.5754 29.0928 29.6243C29.1904 29.6853 29.2637 29.783 29.3491 29.8684C29.2515 29.9417 29.166 30.0637 29.0684 30.0759C28.7754 30.1126 28.4824 30.1125 28.1895 30.1125C26.8345 30.1125 25.4917 30.1125 24.1367 30.1125C24.1245 30.1125 24.1245 30.0881 24.1245 30.0759Z" fill="#1D1929"/>
<path d="M24.1245 15.9874C25.6992 15.9874 27.2861 15.9752 28.8608 15.9996C29.0195 15.9996 29.1782 16.1461 29.3369 16.2194C29.1782 16.3048 29.0073 16.4757 28.8486 16.4757C25.687 16.4757 22.5376 16.4513 19.376 16.4269C19.2417 16.4269 19.1074 16.3048 18.9731 16.2438C19.1074 16.1705 19.2539 16.024 19.3882 16.024C20.9629 16.0118 22.5498 16.0118 24.1245 16.0118C24.1245 15.9996 24.1245 15.9996 24.1245 15.9874Z" fill="#1D1929"/>
<path d="M24.2344 22.8467C22.6841 22.8467 21.146 22.8589 19.5957 22.8345C19.4248 22.8345 19.2539 22.688 19.0708 22.6147C19.2295 22.5415 19.3882 22.4194 19.5591 22.4194C22.6841 22.395 25.8091 22.3828 28.9341 22.3828C29.105 22.3828 29.2637 22.5415 29.4346 22.627C29.2637 22.7002 29.0928 22.8467 28.9219 22.8467C27.3594 22.8589 25.7969 22.8589 24.2344 22.8589V22.8467Z" fill="#1D1929"/>
<path d="M24.1978 37.8638C22.6841 37.8638 21.1826 37.8638 19.6689 37.8638C19.5347 37.8638 19.4004 37.876 19.2783 37.8394C19.2051 37.815 19.144 37.7173 19.0708 37.6563C19.144 37.5831 19.2051 37.4732 19.2905 37.4488C19.3882 37.4122 19.5103 37.4244 19.6323 37.4244C22.6963 37.4122 25.7725 37.4 28.8364 37.4C28.8853 37.4 28.9463 37.3877 28.9829 37.4C29.1416 37.4732 29.2881 37.5709 29.4346 37.6563C29.2759 37.7295 29.1172 37.876 28.9585 37.8882C27.3716 37.9004 25.7725 37.9004 24.1855 37.9004C24.1978 37.8882 24.1978 37.876 24.1978 37.8638Z" fill="#1D1929"/>
<path d="M16.959 22.7748C16.959 22.4208 17.2153 22.1523 17.5693 22.1645C17.96 22.1767 18.1675 22.4086 18.1675 22.787C18.1675 23.1776 17.9478 23.3974 17.5571 23.4096C17.2275 23.434 16.9712 23.1288 16.959 22.7748Z" fill="#1D1929"/>
<path d="M18.1675 37.7167C18.1553 38.1806 17.9477 38.4248 17.5693 38.4248C17.1909 38.4248 16.9712 38.1928 16.959 37.8144C16.9468 37.4238 17.1665 37.2041 17.5571 37.1918C17.96 37.1796 18.1309 37.4238 18.1675 37.7167Z" fill="#1D1929"/>
<path d="M18.1431 30.0249C18.082 30.3667 17.9111 30.5864 17.5327 30.562C17.1787 30.5498 17.0078 30.3178 17.0078 29.9883C17.0078 29.6342 17.2153 29.4023 17.5815 29.4145C17.9478 29.4267 18.1187 29.6709 18.1431 30.0249Z" fill="#1D1929"/>
<path d="M18.2895 24.4956C18.2529 24.874 18.0576 25.0937 17.6914 25.0937C17.3496 25.0937 17.1421 24.874 17.1299 24.5322C17.1177 24.1782 17.3252 23.9463 17.6914 23.9341C18.0698 23.9218 18.2407 24.1538 18.2895 24.4956Z" fill="#1D1929"/>
<path d="M18.2895 39.523C18.2529 39.9014 18.0454 40.1089 17.6914 40.1089C17.3374 40.0967 17.1177 39.8647 17.1299 39.5107C17.1421 39.1567 17.3618 38.9492 17.728 38.9492C18.0942 38.9614 18.2651 39.1934 18.2895 39.523Z" fill="#1D1929"/>
<path d="M17.7524 15.793C17.8501 15.9395 18.082 16.1348 18.1187 16.3667C18.1797 16.7207 17.9233 16.9526 17.5571 16.9526C17.2153 16.9526 17.0078 16.7329 17.0078 16.3911C17.0078 16.0249 17.2031 15.8052 17.7524 15.793Z" fill="#1D1929"/>
<path d="M18.314 31.6992C18.1187 31.8457 17.9233 32.0654 17.7158 32.102C17.4106 32.1508 17.1665 31.8945 17.2153 31.6015C17.252 31.4062 17.5205 31.1376 17.6914 31.1254C17.8867 31.1132 18.1064 31.3574 18.3018 31.4917C18.3018 31.5527 18.3018 31.6259 18.314 31.6992Z" fill="#1D1929"/>
<path d="M18.3018 18.0742C18.1064 18.2084 17.9111 18.4282 17.7036 18.4648C17.3984 18.5136 17.1543 18.2573 17.2153 17.9643C17.252 17.769 17.5205 17.5126 17.6914 17.5004C17.8867 17.4882 18.0942 17.7324 18.3018 17.8544C18.3018 17.9277 18.3018 18.0009 18.3018 18.0742Z" fill="#1D1929"/>
<path d="M48.7217 18.4524C48.6362 18.7087 48.5386 19.2214 48.3066 19.6853C46.793 22.7493 45.1572 25.74 43.1187 28.4866C42.7769 28.9504 42.2642 29.3166 41.7759 29.6584C41.4463 29.8782 41.019 29.8904 40.6772 29.6096C40.3354 29.3288 40.2378 28.9382 40.3843 28.5476C40.6772 27.7419 40.9336 26.9119 41.3608 26.1672C42.9844 23.3352 44.6689 20.5398 46.3291 17.72C46.3901 17.6101 46.4756 17.5002 46.5488 17.4026C46.9639 16.8777 47.4644 16.6824 47.9404 16.8533C48.4653 17.0486 48.7339 17.5124 48.7217 18.4524ZM41.1167 28.926C41.1777 28.9748 41.2266 29.0237 41.2876 29.0725C41.5073 28.9504 41.7515 28.865 41.9224 28.6941C42.313 28.2912 42.7402 27.8884 43.0332 27.4001C44.5103 24.9709 45.9629 22.5295 47.4033 20.0759C47.6597 19.6365 47.855 19.1238 47.9404 18.6233C48.0015 18.3181 47.8184 17.9763 47.7451 17.6467C47.4766 17.8176 47.1103 17.9397 46.9517 18.1838C44.9375 21.199 43.1187 24.3362 41.5562 27.6077C41.3486 28.0227 41.2632 28.4866 41.1167 28.926Z" fill="#1D1929"/>
</g>
<defs>
<clipPath id="clip0_612_35024">
<rect width="44.0796" height="50" fill="white" transform="translate(9 4)"/>
</clipPath>
</defs>
</svg>
